<?xml version="1.0" encoding="UTF-8" standalone="no"?><svg xmlns="http://www.w3.org/2000/svg" xmlns:xlink="http://www.w3.org/1999/xlink" contentStyleType="text/css" height="1663px" preserveAspectRatio="none" style="width:996px;height:1663px;background:#FFFFFF;" version="1.1" viewBox="0 0 996 1663" width="996px" zoomAndPan="magnify"><defs/><g><!--MD5=[c08bc4d12a8be146076d332f1d2459e6]
cluster appLayer--><g id="cluster_appLayer"><path d="M8.5,6 L125.5,6 A3.75,3.75 0 0 1 128,8.5 L135,29.6094 L558.5,29.6094 A2.5,2.5 0 0 1 561,32.1094 L561,1653.5 A2.5,2.5 0 0 1 558.5,1656 L8.5,1656 A2.5,2.5 0 0 1 6,1653.5 L6,8.5 A2.5,2.5 0 0 1 8.5,6 " fill="none" style="stroke:#000000;stroke-width:1.5;"/><line style="stroke:#000000;stroke-width:1.5;" x1="6" x2="135" y1="29.6094" y2="29.6094"/><text fill="#000000" font-family="sans-serif" font-size="14" font-weight="bold" lengthAdjust="spacing" textLength="116" x="10" y="22.5332">Application layer</text></g><!--MD5=[51bf50101582337bc2f21d28af8add36]
cluster appLayerShExDoc--><g id="cluster_appLayerShExDoc"><path d="M258,362 L321,362 A3.75,3.75 0 0 1 323.5,364.5 L330.5,385.6094 L510,385.6094 A2.5,2.5 0 0 1 512.5,388.1094 L512.5,881.5 A2.5,2.5 0 0 1 510,884 L258,884 A2.5,2.5 0 0 1 255.5,881.5 L255.5,364.5 A2.5,2.5 0 0 1 258,362 " fill="none" style="stroke:#000000;stroke-width:1.5;"/><line style="stroke:#000000;stroke-width:1.5;" x1="255.5" x2="330.5" y1="385.6094" y2="385.6094"/><text fill="#000000" font-family="sans-serif" font-size="14" font-weight="bold" lengthAdjust="spacing" textLength="62" x="259.5" y="378.5332">ShExDoc</text></g><!--MD5=[0e4b27b914fdab3075a7042b83ea97c8]
cluster appLayerAuth--><g id="cluster_appLayerAuth"><path d="M276,908 L309,908 A3.75,3.75 0 0 1 311.5,910.5 L318.5,931.6094 L492,931.6094 A2.5,2.5 0 0 1 494.5,934.1094 L494.5,1629.5 A2.5,2.5 0 0 1 492,1632 L276,1632 A2.5,2.5 0 0 1 273.5,1629.5 L273.5,910.5 A2.5,2.5 0 0 1 276,908 " fill="none" style="stroke:#000000;stroke-width:1.5;"/><line style="stroke:#000000;stroke-width:1.5;" x1="273.5" x2="318.5" y1="931.6094" y2="931.6094"/><text fill="#000000" font-family="sans-serif" font-size="14" font-weight="bold" lengthAdjust="spacing" textLength="32" x="277.5" y="924.5332">Auth</text></g><!--MD5=[436e16e75732e52d7095f44f8aae213f]
cluster busLayer--><g id="cluster_busLayer"><path d="M591.5,820 L695.5,820 A3.75,3.75 0 0 1 698,822.5 L705,843.6094 L986.5,843.6094 A2.5,2.5 0 0 1 989,846.1094 L989,1111.5 A2.5,2.5 0 0 1 986.5,1114 L591.5,1114 A2.5,2.5 0 0 1 589,1111.5 L589,822.5 A2.5,2.5 0 0 1 591.5,820 " fill="none" style="stroke:#000000;stroke-width:1.5;"/><line style="stroke:#000000;stroke-width:1.5;" x1="589" x2="705" y1="843.6094" y2="843.6094"/><text fill="#000000" font-family="sans-serif" font-size="14" font-weight="bold" lengthAdjust="spacing" textLength="103" x="593" y="836.5332">Business layer</text></g><!--MD5=[f0f244cf5f0322bd22e81ee8a69418b2]
class appLayerFactory--><g id="elem_appLayerFactory"><rect codeLine="4" fill="#F1F1F1" height="48" id="appLayerFactory" rx="2.5" ry="2.5" style="stroke:#181818;stroke-width:0.5;" width="141" x="22" y="882"/><ellipse cx="37" cy="898" fill="#ADD1B2" rx="11" ry="11" style="stroke:#181818;stroke-width:1.0;"/><path d="M39.7656,893.875 Q39.9219,893.6563 40.1094,893.5469 Q40.2969,893.4375 40.5156,893.4375 Q40.8906,893.4375 41.125,893.7031 Q41.3594,893.9531 41.3594,894.5625 L41.3594,896.0156 Q41.3594,896.625 41.125,896.8906 Q40.8906,897.1563 40.5156,897.1563 Q40.1719,897.1563 39.9688,896.9531 Q39.7656,896.7656 39.6563,896.25 Q39.6094,895.8906 39.4219,895.7031 Q39.0938,895.3281 38.4844,895.1094 Q37.875,894.8906 37.25,894.8906 Q36.4844,894.8906 35.8438,895.2188 Q35.2188,895.5469 34.7188,896.2969 Q34.2344,897.0469 34.2344,898.0781 L34.2344,899.1719 Q34.2344,900.4063 35.125,901.2344 Q36.0156,902.0469 37.6094,902.0469 Q38.5469,902.0469 39.2031,901.7969 Q39.5938,901.6406 40.0156,901.2031 Q40.2813,900.9375 40.4219,900.8594 Q40.5781,900.7813 40.7813,900.7813 Q41.1094,900.7813 41.3594,901.0469 Q41.625,901.2969 41.625,901.6406 Q41.625,901.9844 41.2813,902.3906 Q40.7813,902.9688 39.9844,903.2969 Q38.9063,903.75 37.6094,903.75 Q36.0938,903.75 34.8906,903.125 Q33.9063,902.625 33.2188,901.5625 Q32.5313,900.4844 32.5313,899.2031 L32.5313,898.0469 Q32.5313,896.7188 33.1406,895.5781 Q33.7656,894.4219 34.8594,893.8125 Q35.9531,893.1875 37.1875,893.1875 Q37.9219,893.1875 38.5625,893.3594 Q39.2188,893.5156 39.7656,893.875 Z " fill="#000000"/><text fill="#000000" font-family="sans-serif" font-size="14" lengthAdjust="spacing" textLength="109" x="51" y="903.7285">AppLayerFactory</text><line style="stroke:#181818;stroke-width:0.5;" x1="23" x2="162" y1="914" y2="914"/><line style="stroke:#181818;stroke-width:0.5;" x1="23" x2="162" y1="922" y2="922"/></g><!--MD5=[d794299695be4334e5947dbef585b76f]
class commandExecutor--><g id="elem_commandExecutor"><rect codeLine="7" fill="#F1F1F1" height="65.6094" id="commandExecutor" rx="2.5" ry="2.5" style="stroke:#181818;stroke-width:0.5;" width="319" x="224.5" y="42"/><ellipse cx="320.25" cy="58" fill="#ADD1B2" rx="11" ry="11" style="stroke:#181818;stroke-width:1.0;"/><path d="M323.0156,53.875 Q323.1719,53.6563 323.3594,53.5469 Q323.5469,53.4375 323.7656,53.4375 Q324.1406,53.4375 324.375,53.7031 Q324.6094,53.9531 324.6094,54.5625 L324.6094,56.0156 Q324.6094,56.625 324.375,56.8906 Q324.1406,57.1563 323.7656,57.1563 Q323.4219,57.1563 323.2188,56.9531 Q323.0156,56.7656 322.9063,56.25 Q322.8594,55.8906 322.6719,55.7031 Q322.3438,55.3281 321.7344,55.1094 Q321.125,54.8906 320.5,54.8906 Q319.7344,54.8906 319.0938,55.2188 Q318.4688,55.5469 317.9688,56.2969 Q317.4844,57.0469 317.4844,58.0781 L317.4844,59.1719 Q317.4844,60.4063 318.375,61.2344 Q319.2656,62.0469 320.8594,62.0469 Q321.7969,62.0469 322.4531,61.7969 Q322.8438,61.6406 323.2656,61.2031 Q323.5313,60.9375 323.6719,60.8594 Q323.8281,60.7813 324.0313,60.7813 Q324.3594,60.7813 324.6094,61.0469 Q324.875,61.2969 324.875,61.6406 Q324.875,61.9844 324.5313,62.3906 Q324.0313,62.9688 323.2344,63.2969 Q322.1563,63.75 320.8594,63.75 Q319.3438,63.75 318.1406,63.125 Q317.1563,62.625 316.4688,61.5625 Q315.7813,60.4844 315.7813,59.2031 L315.7813,58.0469 Q315.7813,56.7188 316.3906,55.5781 Q317.0156,54.4219 318.1094,53.8125 Q319.2031,53.1875 320.4375,53.1875 Q321.1719,53.1875 321.8125,53.3594 Q322.4688,53.5156 323.0156,53.875 Z " fill="#000000"/><text fill="#000000" font-family="sans-serif" font-size="14" lengthAdjust="spacing" textLength="119" x="340.75" y="63.7285">CommandExecutor</text><line style="stroke:#181818;stroke-width:0.5;" x1="225.5" x2="542.5" y1="74" y2="74"/><line style="stroke:#181818;stroke-width:1.0;" x1="225.5" x2="542.5" y1="82" y2="82"/><ellipse cx="235.5" cy="96.3047" fill="#84BE84" rx="3" ry="3" style="stroke:#038048;stroke-width:1.0;"/><text fill="#000000" font-family="sans-serif" font-size="14" lengthAdjust="spacing" textLength="293" x="244.5" y="100.5332">execute(req, res, AbstractAppLayerCommand)</text></g><!--MD5=[bd8c4b5a5069e9d82c4da7d2c3ae80b5]
class abstractAppLayerCommand--><g id="elem_abstractAppLayerCommand"><rect codeLine="12" fill="#F1F1F1" height="100.8281" id="abstractAppLayerCommand" rx="2.5" ry="2.5" style="stroke:#181818;stroke-width:0.5;" width="322" x="223" y="143.5"/><ellipse cx="291.25" cy="159.5" fill="#A9DCDF" rx="11" ry="11" style="stroke:#181818;stroke-width:1.0;"/><path d="M293.4375,161.2656 L289.2969,161.2656 L288.875,162.2969 L289.2969,162.2969 Q289.9063,162.2969 290.1719,162.5313 Q290.4375,162.7656 290.4375,163.1563 Q290.4375,163.5313 290.1719,163.7656 Q289.9063,164 289.2969,164 L287,164 Q286.3906,164 286.1406,163.7656 Q285.875,163.5313 285.875,163.1406 Q285.875,162.7656 286.1563,162.5313 Q286.4219,162.2813 287.0469,162.2969 L289.7188,155.6406 L288.6094,155.6406 Q288,155.6406 287.7344,155.4063 Q287.4688,155.1719 287.4688,154.7813 Q287.4688,154.4063 287.7344,154.1719 Q288,153.9375 288.6094,153.9375 L292.2813,153.9375 L295.6719,162.2969 Q296.2656,162.2969 296.4531,162.4375 Q296.8438,162.7031 296.8438,163.1563 Q296.8438,163.5313 296.5781,163.7656 Q296.3281,164 295.7188,164 L293.4219,164 Q292.8125,164 292.5469,163.7656 Q292.2813,163.5313 292.2813,163.1406 Q292.2813,162.7656 292.5469,162.5313 Q292.8125,162.2969 293.4219,162.2969 L293.8438,162.2969 L293.4375,161.2656 Z M292.7188,159.5625 L291.3594,156.1875 L289.9844,159.5625 L292.7188,159.5625 Z " fill="#000000"/><text fill="#000000" font-family="sans-serif" font-size="14" font-style="italic" lengthAdjust="spacing" textLength="177" x="311.75" y="165.2285">AbstractAppLayerCommand</text><line style="stroke:#181818;stroke-width:0.5;" x1="224" x2="544" y1="175.5" y2="175.5"/><line style="stroke:#181818;stroke-width:1.0;" x1="224" x2="544" y1="183.5" y2="183.5"/><ellipse cx="234" cy="197.8047" fill="#84BE84" rx="3" ry="3" style="stroke:#038048;stroke-width:1.0;"/><text fill="#000000" font-family="sans-serif" font-size="14" lengthAdjust="spacing" textLength="296" x="243" y="202.0332">AbstractAppLayerCommand(req, res, ObjectId)</text><ellipse cx="234" cy="215.4141" fill="#84BE84" rx="3" ry="3" style="stroke:#038048;stroke-width:1.0;"/><text fill="#000000" font-family="sans-serif" font-size="14" font-style="italic" lengthAdjust="spacing" textLength="108" x="243" y="219.6426">execute(req, res)</text><polygon fill="#FFFF44" points="234,228.0234,238,232.0234,234,236.0234,230,232.0234" style="stroke:#B38D22;stroke-width:1.0;"/><text fill="#000000" font-family="sans-serif" font-size="14" lengthAdjust="spacing" textLength="125" x="243" y="237.252">asObjectId(stringID)</text></g><!--MD5=[821618d0104504d45ab02e13ea8691b0]
class getIndexCommand--><g id="elem_getIndexCommand"><rect codeLine="19" fill="#F1F1F1" height="65.6094" id="getIndexCommand" rx="2.5" ry="2.5" style="stroke:#181818;stroke-width:0.5;" width="152" x="308" y="280"/><ellipse cx="323" cy="296" fill="#ADD1B2" rx="11" ry="11" style="stroke:#181818;stroke-width:1.0;"/><path d="M325.7656,291.875 Q325.9219,291.6563 326.1094,291.5469 Q326.2969,291.4375 326.5156,291.4375 Q326.8906,291.4375 327.125,291.7031 Q327.3594,291.9531 327.3594,292.5625 L327.3594,294.0156 Q327.3594,294.625 327.125,294.8906 Q326.8906,295.1563 326.5156,295.1563 Q326.1719,295.1563 325.9688,294.9531 Q325.7656,294.7656 325.6563,294.25 Q325.6094,293.8906 325.4219,293.7031 Q325.0938,293.3281 324.4844,293.1094 Q323.875,292.8906 323.25,292.8906 Q322.4844,292.8906 321.8438,293.2188 Q321.2188,293.5469 320.7188,294.2969 Q320.2344,295.0469 320.2344,296.0781 L320.2344,297.1719 Q320.2344,298.4063 321.125,299.2344 Q322.0156,300.0469 323.6094,300.0469 Q324.5469,300.0469 325.2031,299.7969 Q325.5938,299.6406 326.0156,299.2031 Q326.2813,298.9375 326.4219,298.8594 Q326.5781,298.7813 326.7813,298.7813 Q327.1094,298.7813 327.3594,299.0469 Q327.625,299.2969 327.625,299.6406 Q327.625,299.9844 327.2813,300.3906 Q326.7813,300.9688 325.9844,301.2969 Q324.9063,301.75 323.6094,301.75 Q322.0938,301.75 320.8906,301.125 Q319.9063,300.625 319.2188,299.5625 Q318.5313,298.4844 318.5313,297.2031 L318.5313,296.0469 Q318.5313,294.7188 319.1406,293.5781 Q319.7656,292.4219 320.8594,291.8125 Q321.9531,291.1875 323.1875,291.1875 Q323.9219,291.1875 324.5625,291.3594 Q325.2188,291.5156 325.7656,291.875 Z " fill="#000000"/><text fill="#000000" font-family="sans-serif" font-size="14" lengthAdjust="spacing" textLength="120" x="337" y="301.7285">GetIndexCommand</text><line style="stroke:#181818;stroke-width:0.5;" x1="309" x2="459" y1="312" y2="312"/><line style="stroke:#181818;stroke-width:1.0;" x1="309" x2="459" y1="320" y2="320"/><ellipse cx="319" cy="334.3047" fill="#84BE84" rx="3" ry="3" style="stroke:#038048;stroke-width:1.0;"/><text fill="#000000" font-family="sans-serif" font-size="14" lengthAdjust="spacing" textLength="108" x="328" y="338.5332">execute(req, res)</text></g><!--MD5=[3e22031b32bffeed45d79a36fdd01dc6]
class getCreateShExDocCommand--><g id="elem_getCreateShExDocCommand"><rect codeLine="25" fill="#F1F1F1" height="65.6094" id="getCreateShExDocCommand" rx="2.5" ry="2.5" style="stroke:#181818;stroke-width:0.5;" width="219" x="274.5" y="398"/><ellipse cx="289.5" cy="414" fill="#ADD1B2" rx="11" ry="11" style="stroke:#181818;stroke-width:1.0;"/><path d="M292.2656,409.875 Q292.4219,409.6563 292.6094,409.5469 Q292.7969,409.4375 293.0156,409.4375 Q293.3906,409.4375 293.625,409.7031 Q293.8594,409.9531 293.8594,410.5625 L293.8594,412.0156 Q293.8594,412.625 293.625,412.8906 Q293.3906,413.1563 293.0156,413.1563 Q292.6719,413.1563 292.4688,412.9531 Q292.2656,412.7656 292.1563,412.25 Q292.1094,411.8906 291.9219,411.7031 Q291.5938,411.3281 290.9844,411.1094 Q290.375,410.8906 289.75,410.8906 Q288.9844,410.8906 288.3438,411.2188 Q287.7188,411.5469 287.2188,412.2969 Q286.7344,413.0469 286.7344,414.0781 L286.7344,415.1719 Q286.7344,416.4063 287.625,417.2344 Q288.5156,418.0469 290.1094,418.0469 Q291.0469,418.0469 291.7031,417.7969 Q292.0938,417.6406 292.5156,417.2031 Q292.7813,416.9375 292.9219,416.8594 Q293.0781,416.7813 293.2813,416.7813 Q293.6094,416.7813 293.8594,417.0469 Q294.125,417.2969 294.125,417.6406 Q294.125,417.9844 293.7813,418.3906 Q293.2813,418.9688 292.4844,419.2969 Q291.4063,419.75 290.1094,419.75 Q288.5938,419.75 287.3906,419.125 Q286.4063,418.625 285.7188,417.5625 Q285.0313,416.4844 285.0313,415.2031 L285.0313,414.0469 Q285.0313,412.7188 285.6406,411.5781 Q286.2656,410.4219 287.3594,409.8125 Q288.4531,409.1875 289.6875,409.1875 Q290.4219,409.1875 291.0625,409.3594 Q291.7188,409.5156 292.2656,409.875 Z " fill="#000000"/><text fill="#000000" font-family="sans-serif" font-size="14" lengthAdjust="spacing" textLength="187" x="303.5" y="419.7285">GetCreateShExDocCommand</text><line style="stroke:#181818;stroke-width:0.5;" x1="275.5" x2="492.5" y1="430" y2="430"/><line style="stroke:#181818;stroke-width:1.0;" x1="275.5" x2="492.5" y1="438" y2="438"/><ellipse cx="285.5" cy="452.3047" fill="#84BE84" rx="3" ry="3" style="stroke:#038048;stroke-width:1.0;"/><text fill="#000000" font-family="sans-serif" font-size="14" lengthAdjust="spacing" textLength="108" x="294.5" y="456.5332">execute(req, res)</text></g><!--MD5=[eed402129d70d6cd5acdceb357ea617f]
class postCreateShExDocCommand--><g id="elem_postCreateShExDocCommand"><rect codeLine="29" fill="#F1F1F1" height="65.6094" id="postCreateShExDocCommand" rx="2.5" ry="2.5" style="stroke:#181818;stroke-width:0.5;" width="224" x="272" y="499"/><ellipse cx="287" cy="515" fill="#ADD1B2" rx="11" ry="11" style="stroke:#181818;stroke-width:1.0;"/><path d="M289.7656,510.875 Q289.9219,510.6563 290.1094,510.5469 Q290.2969,510.4375 290.5156,510.4375 Q290.8906,510.4375 291.125,510.7031 Q291.3594,510.9531 291.3594,511.5625 L291.3594,513.0156 Q291.3594,513.625 291.125,513.8906 Q290.8906,514.1563 290.5156,514.1563 Q290.1719,514.1563 289.9688,513.9531 Q289.7656,513.7656 289.6563,513.25 Q289.6094,512.8906 289.4219,512.7031 Q289.0938,512.3281 288.4844,512.1094 Q287.875,511.8906 287.25,511.8906 Q286.4844,511.8906 285.8438,512.2188 Q285.2188,512.5469 284.7188,513.2969 Q284.2344,514.0469 284.2344,515.0781 L284.2344,516.1719 Q284.2344,517.4063 285.125,518.2344 Q286.0156,519.0469 287.6094,519.0469 Q288.5469,519.0469 289.2031,518.7969 Q289.5938,518.6406 290.0156,518.2031 Q290.2813,517.9375 290.4219,517.8594 Q290.5781,517.7813 290.7813,517.7813 Q291.1094,517.7813 291.3594,518.0469 Q291.625,518.2969 291.625,518.6406 Q291.625,518.9844 291.2813,519.3906 Q290.7813,519.9688 289.9844,520.2969 Q288.9063,520.75 287.6094,520.75 Q286.0938,520.75 284.8906,520.125 Q283.9063,519.625 283.2188,518.5625 Q282.5313,517.4844 282.5313,516.2031 L282.5313,515.0469 Q282.5313,513.7188 283.1406,512.5781 Q283.7656,511.4219 284.8594,510.8125 Q285.9531,510.1875 287.1875,510.1875 Q287.9219,510.1875 288.5625,510.3594 Q289.2188,510.5156 289.7656,510.875 Z " fill="#000000"/><text fill="#000000" font-family="sans-serif" font-size="14" lengthAdjust="spacing" textLength="192" x="301" y="520.7285">PostCreateShExDocCommand</text><line style="stroke:#181818;stroke-width:0.5;" x1="273" x2="495" y1="531" y2="531"/><line style="stroke:#181818;stroke-width:1.0;" x1="273" x2="495" y1="539" y2="539"/><ellipse cx="283" cy="553.3047" fill="#84BE84" rx="3" ry="3" style="stroke:#038048;stroke-width:1.0;"/><text fill="#000000" font-family="sans-serif" font-size="14" lengthAdjust="spacing" textLength="108" x="292" y="557.5332">execute(req, res)</text></g><!--MD5=[a3e8209a44610a96e484392ba0229ba4]
class getShExDocCommand--><g id="elem_getShExDocCommand"><rect codeLine="33" fill="#F1F1F1" height="65.6094" id="getShExDocCommand" rx="2.5" ry="2.5" style="stroke:#181818;stroke-width:0.5;" width="176" x="296" y="600"/><ellipse cx="311" cy="616" fill="#ADD1B2" rx="11" ry="11" style="stroke:#181818;stroke-width:1.0;"/><path d="M313.7656,611.875 Q313.9219,611.6563 314.1094,611.5469 Q314.2969,611.4375 314.5156,611.4375 Q314.8906,611.4375 315.125,611.7031 Q315.3594,611.9531 315.3594,612.5625 L315.3594,614.0156 Q315.3594,614.625 315.125,614.8906 Q314.8906,615.1563 314.5156,615.1563 Q314.1719,615.1563 313.9688,614.9531 Q313.7656,614.7656 313.6563,614.25 Q313.6094,613.8906 313.4219,613.7031 Q313.0938,613.3281 312.4844,613.1094 Q311.875,612.8906 311.25,612.8906 Q310.4844,612.8906 309.8438,613.2188 Q309.2188,613.5469 308.7188,614.2969 Q308.2344,615.0469 308.2344,616.0781 L308.2344,617.1719 Q308.2344,618.4063 309.125,619.2344 Q310.0156,620.0469 311.6094,620.0469 Q312.5469,620.0469 313.2031,619.7969 Q313.5938,619.6406 314.0156,619.2031 Q314.2813,618.9375 314.4219,618.8594 Q314.5781,618.7813 314.7813,618.7813 Q315.1094,618.7813 315.3594,619.0469 Q315.625,619.2969 315.625,619.6406 Q315.625,619.9844 315.2813,620.3906 Q314.7813,620.9688 313.9844,621.2969 Q312.9063,621.75 311.6094,621.75 Q310.0938,621.75 308.8906,621.125 Q307.9063,620.625 307.2188,619.5625 Q306.5313,618.4844 306.5313,617.2031 L306.5313,616.0469 Q306.5313,614.7188 307.1406,613.5781 Q307.7656,612.4219 308.8594,611.8125 Q309.9531,611.1875 311.1875,611.1875 Q311.9219,611.1875 312.5625,611.3594 Q313.2188,611.5156 313.7656,611.875 Z " fill="#000000"/><text fill="#000000" font-family="sans-serif" font-size="14" lengthAdjust="spacing" textLength="144" x="325" y="621.7285">GetShExDocCommand</text><line style="stroke:#181818;stroke-width:0.5;" x1="297" x2="471" y1="632" y2="632"/><line style="stroke:#181818;stroke-width:1.0;" x1="297" x2="471" y1="640" y2="640"/><ellipse cx="307" cy="654.3047" fill="#84BE84" rx="3" ry="3" style="stroke:#038048;stroke-width:1.0;"/><text fill="#000000" font-family="sans-serif" font-size="14" lengthAdjust="spacing" textLength="108" x="316" y="658.5332">execute(req, res)</text></g><!--MD5=[ae79f5fca2cab58b4660f56d5ec6f6dc]
class getLeaveOwnershipCommand--><g id="elem_getLeaveOwnershipCommand"><rect codeLine="37" fill="#F1F1F1" height="65.6094" id="getLeaveOwnershipCommand" rx="2.5" ry="2.5" style="stroke:#181818;stroke-width:0.5;" width="225" x="271.5" y="701"/><ellipse cx="286.5" cy="717" fill="#ADD1B2" rx="11" ry="11" style="stroke:#181818;stroke-width:1.0;"/><path d="M289.2656,712.875 Q289.4219,712.6563 289.6094,712.5469 Q289.7969,712.4375 290.0156,712.4375 Q290.3906,712.4375 290.625,712.7031 Q290.8594,712.9531 290.8594,713.5625 L290.8594,715.0156 Q290.8594,715.625 290.625,715.8906 Q290.3906,716.1563 290.0156,716.1563 Q289.6719,716.1563 289.4688,715.9531 Q289.2656,715.7656 289.1563,715.25 Q289.1094,714.8906 288.9219,714.7031 Q288.5938,714.3281 287.9844,714.1094 Q287.375,713.8906 286.75,713.8906 Q285.9844,713.8906 285.3438,714.2188 Q284.7188,714.5469 284.2188,715.2969 Q283.7344,716.0469 283.7344,717.0781 L283.7344,718.1719 Q283.7344,719.4063 284.625,720.2344 Q285.5156,721.0469 287.1094,721.0469 Q288.0469,721.0469 288.7031,720.7969 Q289.0938,720.6406 289.5156,720.2031 Q289.7813,719.9375 289.9219,719.8594 Q290.0781,719.7813 290.2813,719.7813 Q290.6094,719.7813 290.8594,720.0469 Q291.125,720.2969 291.125,720.6406 Q291.125,720.9844 290.7813,721.3906 Q290.2813,721.9688 289.4844,722.2969 Q288.4063,722.75 287.1094,722.75 Q285.5938,722.75 284.3906,722.125 Q283.4063,721.625 282.7188,720.5625 Q282.0313,719.4844 282.0313,718.2031 L282.0313,717.0469 Q282.0313,715.7188 282.6406,714.5781 Q283.2656,713.4219 284.3594,712.8125 Q285.4531,712.1875 286.6875,712.1875 Q287.4219,712.1875 288.0625,712.3594 Q288.7188,712.5156 289.2656,712.875 Z " fill="#000000"/><text fill="#000000" font-family="sans-serif" font-size="14" lengthAdjust="spacing" textLength="193" x="300.5" y="722.7285">GetLeaveOwnershipCommand</text><line style="stroke:#181818;stroke-width:0.5;" x1="272.5" x2="495.5" y1="733" y2="733"/><line style="stroke:#181818;stroke-width:1.0;" x1="272.5" x2="495.5" y1="741" y2="741"/><ellipse cx="282.5" cy="755.3047" fill="#84BE84" rx="3" ry="3" style="stroke:#038048;stroke-width:1.0;"/><text fill="#000000" font-family="sans-serif" font-size="14" lengthAdjust="spacing" textLength="108" x="291.5" y="759.5332">execute(req, res)</text></g><!--MD5=[30cb5499c35f33501fb0ae1104ac1b89]
class postAddOwnerCommand--><g id="elem_postAddOwnerCommand"><rect codeLine="41" fill="#F1F1F1" height="65.6094" id="postAddOwnerCommand" rx="2.5" ry="2.5" style="stroke:#181818;stroke-width:0.5;" width="190" x="289" y="802"/><ellipse cx="304" cy="818" fill="#ADD1B2" rx="11" ry="11" style="stroke:#181818;stroke-width:1.0;"/><path d="M306.7656,813.875 Q306.9219,813.6563 307.1094,813.5469 Q307.2969,813.4375 307.5156,813.4375 Q307.8906,813.4375 308.125,813.7031 Q308.3594,813.9531 308.3594,814.5625 L308.3594,816.0156 Q308.3594,816.625 308.125,816.8906 Q307.8906,817.1563 307.5156,817.1563 Q307.1719,817.1563 306.9688,816.9531 Q306.7656,816.7656 306.6563,816.25 Q306.6094,815.8906 306.4219,815.7031 Q306.0938,815.3281 305.4844,815.1094 Q304.875,814.8906 304.25,814.8906 Q303.4844,814.8906 302.8438,815.2188 Q302.2188,815.5469 301.7188,816.2969 Q301.2344,817.0469 301.2344,818.0781 L301.2344,819.1719 Q301.2344,820.4063 302.125,821.2344 Q303.0156,822.0469 304.6094,822.0469 Q305.5469,822.0469 306.2031,821.7969 Q306.5938,821.6406 307.0156,821.2031 Q307.2813,820.9375 307.4219,820.8594 Q307.5781,820.7813 307.7813,820.7813 Q308.1094,820.7813 308.3594,821.0469 Q308.625,821.2969 308.625,821.6406 Q308.625,821.9844 308.2813,822.3906 Q307.7813,822.9688 306.9844,823.2969 Q305.9063,823.75 304.6094,823.75 Q303.0938,823.75 301.8906,823.125 Q300.9063,822.625 300.2188,821.5625 Q299.5313,820.4844 299.5313,819.2031 L299.5313,818.0469 Q299.5313,816.7188 300.1406,815.5781 Q300.7656,814.4219 301.8594,813.8125 Q302.9531,813.1875 304.1875,813.1875 Q304.9219,813.1875 305.5625,813.3594 Q306.2188,813.5156 306.7656,813.875 Z " fill="#000000"/><text fill="#000000" font-family="sans-serif" font-size="14" lengthAdjust="spacing" textLength="158" x="318" y="823.7285">PostAddOwnerCommand</text><line style="stroke:#181818;stroke-width:0.5;" x1="290" x2="478" y1="834" y2="834"/><line style="stroke:#181818;stroke-width:1.0;" x1="290" x2="478" y1="842" y2="842"/><ellipse cx="300" cy="856.3047" fill="#84BE84" rx="3" ry="3" style="stroke:#038048;stroke-width:1.0;"/><text fill="#000000" font-family="sans-serif" font-size="14" lengthAdjust="spacing" textLength="108" x="309" y="860.5332">execute(req, res)</text></g><!--MD5=[5fa4cee94b3da24282ced27c594f5f8c]
class getRegisterCommand--><g id="elem_getRegisterCommand"><rect codeLine="48" fill="#F1F1F1" height="65.6094" id="getRegisterCommand" rx="2.5" ry="2.5" style="stroke:#181818;stroke-width:0.5;" width="172" x="298" y="944"/><ellipse cx="313" cy="960" fill="#ADD1B2" rx="11" ry="11" style="stroke:#181818;stroke-width:1.0;"/><path d="M315.7656,955.875 Q315.9219,955.6563 316.1094,955.5469 Q316.2969,955.4375 316.5156,955.4375 Q316.8906,955.4375 317.125,955.7031 Q317.3594,955.9531 317.3594,956.5625 L317.3594,958.0156 Q317.3594,958.625 317.125,958.8906 Q316.8906,959.1563 316.5156,959.1563 Q316.1719,959.1563 315.9688,958.9531 Q315.7656,958.7656 315.6563,958.25 Q315.6094,957.8906 315.4219,957.7031 Q315.0938,957.3281 314.4844,957.1094 Q313.875,956.8906 313.25,956.8906 Q312.4844,956.8906 311.8438,957.2188 Q311.2188,957.5469 310.7188,958.2969 Q310.2344,959.0469 310.2344,960.0781 L310.2344,961.1719 Q310.2344,962.4063 311.125,963.2344 Q312.0156,964.0469 313.6094,964.0469 Q314.5469,964.0469 315.2031,963.7969 Q315.5938,963.6406 316.0156,963.2031 Q316.2813,962.9375 316.4219,962.8594 Q316.5781,962.7813 316.7813,962.7813 Q317.1094,962.7813 317.3594,963.0469 Q317.625,963.2969 317.625,963.6406 Q317.625,963.9844 317.2813,964.3906 Q316.7813,964.9688 315.9844,965.2969 Q314.9063,965.75 313.6094,965.75 Q312.0938,965.75 310.8906,965.125 Q309.9063,964.625 309.2188,963.5625 Q308.5313,962.4844 308.5313,961.2031 L308.5313,960.0469 Q308.5313,958.7188 309.1406,957.5781 Q309.7656,956.4219 310.8594,955.8125 Q311.9531,955.1875 313.1875,955.1875 Q313.9219,955.1875 314.5625,955.3594 Q315.2188,955.5156 315.7656,955.875 Z " fill="#000000"/><text fill="#000000" font-family="sans-serif" font-size="14" lengthAdjust="spacing" textLength="140" x="327" y="965.7285">GetRegisterCommand</text><line style="stroke:#181818;stroke-width:0.5;" x1="299" x2="469" y1="976" y2="976"/><line style="stroke:#181818;stroke-width:1.0;" x1="299" x2="469" y1="984" y2="984"/><ellipse cx="309" cy="998.3047" fill="#84BE84" rx="3" ry="3" style="stroke:#038048;stroke-width:1.0;"/><text fill="#000000" font-family="sans-serif" font-size="14" lengthAdjust="spacing" textLength="108" x="318" y="1002.5332">execute(req, res)</text></g><!--MD5=[0514d8f931ba3abfd44f98366df8e994]
class postRegisterCommand--><g id="elem_postRegisterCommand"><rect codeLine="52" fill="#F1F1F1" height="65.6094" id="postRegisterCommand" rx="2.5" ry="2.5" style="stroke:#181818;stroke-width:0.5;" width="177" x="295.5" y="1045"/><ellipse cx="310.5" cy="1061" fill="#ADD1B2" rx="11" ry="11" style="stroke:#181818;stroke-width:1.0;"/><path d="M313.2656,1056.875 Q313.4219,1056.6563 313.6094,1056.5469 Q313.7969,1056.4375 314.0156,1056.4375 Q314.3906,1056.4375 314.625,1056.7031 Q314.8594,1056.9531 314.8594,1057.5625 L314.8594,1059.0156 Q314.8594,1059.625 314.625,1059.8906 Q314.3906,1060.1563 314.0156,1060.1563 Q313.6719,1060.1563 313.4688,1059.9531 Q313.2656,1059.7656 313.1563,1059.25 Q313.1094,1058.8906 312.9219,1058.7031 Q312.5938,1058.3281 311.9844,1058.1094 Q311.375,1057.8906 310.75,1057.8906 Q309.9844,1057.8906 309.3438,1058.2188 Q308.7188,1058.5469 308.2188,1059.2969 Q307.7344,1060.0469 307.7344,1061.0781 L307.7344,1062.1719 Q307.7344,1063.4063 308.625,1064.2344 Q309.5156,1065.0469 311.1094,1065.0469 Q312.0469,1065.0469 312.7031,1064.7969 Q313.0938,1064.6406 313.5156,1064.2031 Q313.7813,1063.9375 313.9219,1063.8594 Q314.0781,1063.7813 314.2813,1063.7813 Q314.6094,1063.7813 314.8594,1064.0469 Q315.125,1064.2969 315.125,1064.6406 Q315.125,1064.9844 314.7813,1065.3906 Q314.2813,1065.9688 313.4844,1066.2969 Q312.4063,1066.75 311.1094,1066.75 Q309.5938,1066.75 308.3906,1066.125 Q307.4063,1065.625 306.7188,1064.5625 Q306.0313,1063.4844 306.0313,1062.2031 L306.0313,1061.0469 Q306.0313,1059.7188 306.6406,1058.5781 Q307.2656,1057.4219 308.3594,1056.8125 Q309.4531,1056.1875 310.6875,1056.1875 Q311.4219,1056.1875 312.0625,1056.3594 Q312.7188,1056.5156 313.2656,1056.875 Z " fill="#000000"/><text fill="#000000" font-family="sans-serif" font-size="14" lengthAdjust="spacing" textLength="145" x="324.5" y="1066.7285">PostRegisterCommand</text><line style="stroke:#181818;stroke-width:0.5;" x1="296.5" x2="471.5" y1="1077" y2="1077"/><line style="stroke:#181818;stroke-width:1.0;" x1="296.5" x2="471.5" y1="1085" y2="1085"/><ellipse cx="306.5" cy="1099.3047" fill="#84BE84" rx="3" ry="3" style="stroke:#038048;stroke-width:1.0;"/><text fill="#000000" font-family="sans-serif" font-size="14" lengthAdjust="spacing" textLength="108" x="315.5" y="1103.5332">execute(req, res)</text></g><!--MD5=[3b020ad5a707b43a29f8367dc1a1c8bf]
class getUnregisterCommand--><g id="elem_getUnregisterCommand"><rect codeLine="56" fill="#F1F1F1" height="65.6094" id="getUnregisterCommand" rx="2.5" ry="2.5" style="stroke:#181818;stroke-width:0.5;" width="184" x="292" y="1146"/><ellipse cx="307" cy="1162" fill="#ADD1B2" rx="11" ry="11" style="stroke:#181818;stroke-width:1.0;"/><path d="M309.7656,1157.875 Q309.9219,1157.6563 310.1094,1157.5469 Q310.2969,1157.4375 310.5156,1157.4375 Q310.8906,1157.4375 311.125,1157.7031 Q311.3594,1157.9531 311.3594,1158.5625 L311.3594,1160.0156 Q311.3594,1160.625 311.125,1160.8906 Q310.8906,1161.1563 310.5156,1161.1563 Q310.1719,1161.1563 309.9688,1160.9531 Q309.7656,1160.7656 309.6563,1160.25 Q309.6094,1159.8906 309.4219,1159.7031 Q309.0938,1159.3281 308.4844,1159.1094 Q307.875,1158.8906 307.25,1158.8906 Q306.4844,1158.8906 305.8438,1159.2188 Q305.2188,1159.5469 304.7188,1160.2969 Q304.2344,1161.0469 304.2344,1162.0781 L304.2344,1163.1719 Q304.2344,1164.4063 305.125,1165.2344 Q306.0156,1166.0469 307.6094,1166.0469 Q308.5469,1166.0469 309.2031,1165.7969 Q309.5938,1165.6406 310.0156,1165.2031 Q310.2813,1164.9375 310.4219,1164.8594 Q310.5781,1164.7813 310.7813,1164.7813 Q311.1094,1164.7813 311.3594,1165.0469 Q311.625,1165.2969 311.625,1165.6406 Q311.625,1165.9844 311.2813,1166.3906 Q310.7813,1166.9688 309.9844,1167.2969 Q308.9063,1167.75 307.6094,1167.75 Q306.0938,1167.75 304.8906,1167.125 Q303.9063,1166.625 303.2188,1165.5625 Q302.5313,1164.4844 302.5313,1163.2031 L302.5313,1162.0469 Q302.5313,1160.7188 303.1406,1159.5781 Q303.7656,1158.4219 304.8594,1157.8125 Q305.9531,1157.1875 307.1875,1157.1875 Q307.9219,1157.1875 308.5625,1157.3594 Q309.2188,1157.5156 309.7656,1157.875 Z " fill="#000000"/><text fill="#000000" font-family="sans-serif" font-size="14" lengthAdjust="spacing" textLength="152" x="321" y="1167.7285">GetUnregisterCommand</text><line style="stroke:#181818;stroke-width:0.5;" x1="293" x2="475" y1="1178" y2="1178"/><line style="stroke:#181818;stroke-width:1.0;" x1="293" x2="475" y1="1186" y2="1186"/><ellipse cx="303" cy="1200.3047" fill="#84BE84" rx="3" ry="3" style="stroke:#038048;stroke-width:1.0;"/><text fill="#000000" font-family="sans-serif" font-size="14" lengthAdjust="spacing" textLength="108" x="312" y="1204.5332">execute(req, res)</text></g><!--MD5=[25b2da7b198449d98dffea592d0bf2a3]
class postUnregisterCommand--><g id="elem_postUnregisterCommand"><rect codeLine="60" fill="#F1F1F1" height="65.6094" id="postUnregisterCommand" rx="2.5" ry="2.5" style="stroke:#181818;stroke-width:0.5;" width="189" x="289.5" y="1247"/><ellipse cx="304.5" cy="1263" fill="#ADD1B2" rx="11" ry="11" style="stroke:#181818;stroke-width:1.0;"/><path d="M307.2656,1258.875 Q307.4219,1258.6563 307.6094,1258.5469 Q307.7969,1258.4375 308.0156,1258.4375 Q308.3906,1258.4375 308.625,1258.7031 Q308.8594,1258.9531 308.8594,1259.5625 L308.8594,1261.0156 Q308.8594,1261.625 308.625,1261.8906 Q308.3906,1262.1563 308.0156,1262.1563 Q307.6719,1262.1563 307.4688,1261.9531 Q307.2656,1261.7656 307.1563,1261.25 Q307.1094,1260.8906 306.9219,1260.7031 Q306.5938,1260.3281 305.9844,1260.1094 Q305.375,1259.8906 304.75,1259.8906 Q303.9844,1259.8906 303.3438,1260.2188 Q302.7188,1260.5469 302.2188,1261.2969 Q301.7344,1262.0469 301.7344,1263.0781 L301.7344,1264.1719 Q301.7344,1265.4063 302.625,1266.2344 Q303.5156,1267.0469 305.1094,1267.0469 Q306.0469,1267.0469 306.7031,1266.7969 Q307.0938,1266.6406 307.5156,1266.2031 Q307.7813,1265.9375 307.9219,1265.8594 Q308.0781,1265.7813 308.2813,1265.7813 Q308.6094,1265.7813 308.8594,1266.0469 Q309.125,1266.2969 309.125,1266.6406 Q309.125,1266.9844 308.7813,1267.3906 Q308.2813,1267.9688 307.4844,1268.2969 Q306.4063,1268.75 305.1094,1268.75 Q303.5938,1268.75 302.3906,1268.125 Q301.4063,1267.625 300.7188,1266.5625 Q300.0313,1265.4844 300.0313,1264.2031 L300.0313,1263.0469 Q300.0313,1261.7188 300.6406,1260.5781 Q301.2656,1259.4219 302.3594,1258.8125 Q303.4531,1258.1875 304.6875,1258.1875 Q305.4219,1258.1875 306.0625,1258.3594 Q306.7188,1258.5156 307.2656,1258.875 Z " fill="#000000"/><text fill="#000000" font-family="sans-serif" font-size="14" lengthAdjust="spacing" textLength="157" x="318.5" y="1268.7285">PostUnregisterCommand</text><line style="stroke:#181818;stroke-width:0.5;" x1="290.5" x2="477.5" y1="1279" y2="1279"/><line style="stroke:#181818;stroke-width:1.0;" x1="290.5" x2="477.5" y1="1287" y2="1287"/><ellipse cx="300.5" cy="1301.3047" fill="#84BE84" rx="3" ry="3" style="stroke:#038048;stroke-width:1.0;"/><text fill="#000000" font-family="sans-serif" font-size="14" lengthAdjust="spacing" textLength="108" x="309.5" y="1305.5332">execute(req, res)</text></g><!--MD5=[e4527a3b8a5c3115eb9ef571a3ae17e9]
class getLoginCommand--><g id="elem_getLoginCommand"><rect codeLine="64" fill="#F1F1F1" height="65.6094" id="getLoginCommand" rx="2.5" ry="2.5" style="stroke:#181818;stroke-width:0.5;" width="154" x="307" y="1348"/><ellipse cx="322" cy="1364" fill="#ADD1B2" rx="11" ry="11" style="stroke:#181818;stroke-width:1.0;"/><path d="M324.7656,1359.875 Q324.9219,1359.6563 325.1094,1359.5469 Q325.2969,1359.4375 325.5156,1359.4375 Q325.8906,1359.4375 326.125,1359.7031 Q326.3594,1359.9531 326.3594,1360.5625 L326.3594,1362.0156 Q326.3594,1362.625 326.125,1362.8906 Q325.8906,1363.1563 325.5156,1363.1563 Q325.1719,1363.1563 324.9688,1362.9531 Q324.7656,1362.7656 324.6563,1362.25 Q324.6094,1361.8906 324.4219,1361.7031 Q324.0938,1361.3281 323.4844,1361.1094 Q322.875,1360.8906 322.25,1360.8906 Q321.4844,1360.8906 320.8438,1361.2188 Q320.2188,1361.5469 319.7188,1362.2969 Q319.2344,1363.0469 319.2344,1364.0781 L319.2344,1365.1719 Q319.2344,1366.4063 320.125,1367.2344 Q321.0156,1368.0469 322.6094,1368.0469 Q323.5469,1368.0469 324.2031,1367.7969 Q324.5938,1367.6406 325.0156,1367.2031 Q325.2813,1366.9375 325.4219,1366.8594 Q325.5781,1366.7813 325.7813,1366.7813 Q326.1094,1366.7813 326.3594,1367.0469 Q326.625,1367.2969 326.625,1367.6406 Q326.625,1367.9844 326.2813,1368.3906 Q325.7813,1368.9688 324.9844,1369.2969 Q323.9063,1369.75 322.6094,1369.75 Q321.0938,1369.75 319.8906,1369.125 Q318.9063,1368.625 318.2188,1367.5625 Q317.5313,1366.4844 317.5313,1365.2031 L317.5313,1364.0469 Q317.5313,1362.7188 318.1406,1361.5781 Q318.7656,1360.4219 319.8594,1359.8125 Q320.9531,1359.1875 322.1875,1359.1875 Q322.9219,1359.1875 323.5625,1359.3594 Q324.2188,1359.5156 324.7656,1359.875 Z " fill="#000000"/><text fill="#000000" font-family="sans-serif" font-size="14" lengthAdjust="spacing" textLength="122" x="336" y="1369.7285">GetLoginCommand</text><line style="stroke:#181818;stroke-width:0.5;" x1="308" x2="460" y1="1380" y2="1380"/><line style="stroke:#181818;stroke-width:1.0;" x1="308" x2="460" y1="1388" y2="1388"/><ellipse cx="318" cy="1402.3047" fill="#84BE84" rx="3" ry="3" style="stroke:#038048;stroke-width:1.0;"/><text fill="#000000" font-family="sans-serif" font-size="14" lengthAdjust="spacing" textLength="108" x="327" y="1406.5332">execute(req, res)</text></g><!--MD5=[baa11aa8d27263918c01d38b4db9c4e1]
class postLoginCommand--><g id="elem_postLoginCommand"><rect codeLine="68" fill="#F1F1F1" height="65.6094" id="postLoginCommand" rx="2.5" ry="2.5" style="stroke:#181818;stroke-width:0.5;" width="159" x="304.5" y="1449"/><ellipse cx="319.5" cy="1465" fill="#ADD1B2" rx="11" ry="11" style="stroke:#181818;stroke-width:1.0;"/><path d="M322.2656,1460.875 Q322.4219,1460.6563 322.6094,1460.5469 Q322.7969,1460.4375 323.0156,1460.4375 Q323.3906,1460.4375 323.625,1460.7031 Q323.8594,1460.9531 323.8594,1461.5625 L323.8594,1463.0156 Q323.8594,1463.625 323.625,1463.8906 Q323.3906,1464.1563 323.0156,1464.1563 Q322.6719,1464.1563 322.4688,1463.9531 Q322.2656,1463.7656 322.1563,1463.25 Q322.1094,1462.8906 321.9219,1462.7031 Q321.5938,1462.3281 320.9844,1462.1094 Q320.375,1461.8906 319.75,1461.8906 Q318.9844,1461.8906 318.3438,1462.2188 Q317.7188,1462.5469 317.2188,1463.2969 Q316.7344,1464.0469 316.7344,1465.0781 L316.7344,1466.1719 Q316.7344,1467.4063 317.625,1468.2344 Q318.5156,1469.0469 320.1094,1469.0469 Q321.0469,1469.0469 321.7031,1468.7969 Q322.0938,1468.6406 322.5156,1468.2031 Q322.7813,1467.9375 322.9219,1467.8594 Q323.0781,1467.7813 323.2813,1467.7813 Q323.6094,1467.7813 323.8594,1468.0469 Q324.125,1468.2969 324.125,1468.6406 Q324.125,1468.9844 323.7813,1469.3906 Q323.2813,1469.9688 322.4844,1470.2969 Q321.4063,1470.75 320.1094,1470.75 Q318.5938,1470.75 317.3906,1470.125 Q316.4063,1469.625 315.7188,1468.5625 Q315.0313,1467.4844 315.0313,1466.2031 L315.0313,1465.0469 Q315.0313,1463.7188 315.6406,1462.5781 Q316.2656,1461.4219 317.3594,1460.8125 Q318.4531,1460.1875 319.6875,1460.1875 Q320.4219,1460.1875 321.0625,1460.3594 Q321.7188,1460.5156 322.2656,1460.875 Z " fill="#000000"/><text fill="#000000" font-family="sans-serif" font-size="14" lengthAdjust="spacing" textLength="127" x="333.5" y="1470.7285">PostLoginCommand</text><line style="stroke:#181818;stroke-width:0.5;" x1="305.5" x2="462.5" y1="1481" y2="1481"/><line style="stroke:#181818;stroke-width:1.0;" x1="305.5" x2="462.5" y1="1489" y2="1489"/><ellipse cx="315.5" cy="1503.3047" fill="#84BE84" rx="3" ry="3" style="stroke:#038048;stroke-width:1.0;"/><text fill="#000000" font-family="sans-serif" font-size="14" lengthAdjust="spacing" textLength="108" x="324.5" y="1507.5332">execute(req, res)</text></g><!--MD5=[dc1637b5e7a834e3880437d31af4141f]
class getLogoutCommand--><g id="elem_getLogoutCommand"><rect codeLine="72" fill="#F1F1F1" height="65.6094" id="getLogoutCommand" rx="2.5" ry="2.5" style="stroke:#181818;stroke-width:0.5;" width="163" x="302.5" y="1550"/><ellipse cx="317.5" cy="1566" fill="#ADD1B2" rx="11" ry="11" style="stroke:#181818;stroke-width:1.0;"/><path d="M320.2656,1561.875 Q320.4219,1561.6563 320.6094,1561.5469 Q320.7969,1561.4375 321.0156,1561.4375 Q321.3906,1561.4375 321.625,1561.7031 Q321.8594,1561.9531 321.8594,1562.5625 L321.8594,1564.0156 Q321.8594,1564.625 321.625,1564.8906 Q321.3906,1565.1563 321.0156,1565.1563 Q320.6719,1565.1563 320.4688,1564.9531 Q320.2656,1564.7656 320.1563,1564.25 Q320.1094,1563.8906 319.9219,1563.7031 Q319.5938,1563.3281 318.9844,1563.1094 Q318.375,1562.8906 317.75,1562.8906 Q316.9844,1562.8906 316.3438,1563.2188 Q315.7188,1563.5469 315.2188,1564.2969 Q314.7344,1565.0469 314.7344,1566.0781 L314.7344,1567.1719 Q314.7344,1568.4063 315.625,1569.2344 Q316.5156,1570.0469 318.1094,1570.0469 Q319.0469,1570.0469 319.7031,1569.7969 Q320.0938,1569.6406 320.5156,1569.2031 Q320.7813,1568.9375 320.9219,1568.8594 Q321.0781,1568.7813 321.2813,1568.7813 Q321.6094,1568.7813 321.8594,1569.0469 Q322.125,1569.2969 322.125,1569.6406 Q322.125,1569.9844 321.7813,1570.3906 Q321.2813,1570.9688 320.4844,1571.2969 Q319.4063,1571.75 318.1094,1571.75 Q316.5938,1571.75 315.3906,1571.125 Q314.4063,1570.625 313.7188,1569.5625 Q313.0313,1568.4844 313.0313,1567.2031 L313.0313,1566.0469 Q313.0313,1564.7188 313.6406,1563.5781 Q314.2656,1562.4219 315.3594,1561.8125 Q316.4531,1561.1875 317.6875,1561.1875 Q318.4219,1561.1875 319.0625,1561.3594 Q319.7188,1561.5156 320.2656,1561.875 Z " fill="#000000"/><text fill="#000000" font-family="sans-serif" font-size="14" lengthAdjust="spacing" textLength="131" x="331.5" y="1571.7285">GetLogoutCommand</text><line style="stroke:#181818;stroke-width:0.5;" x1="303.5" x2="464.5" y1="1582" y2="1582"/><line style="stroke:#181818;stroke-width:1.0;" x1="303.5" x2="464.5" y1="1590" y2="1590"/><ellipse cx="313.5" cy="1604.3047" fill="#84BE84" rx="3" ry="3" style="stroke:#038048;stroke-width:1.0;"/><text fill="#000000" font-family="sans-serif" font-size="14" lengthAdjust="spacing" textLength="108" x="322.5" y="1608.5332">execute(req, res)</text></g><!--MD5=[3252b1d7d63d6cc6058457f1f895baf4]
class businessFactory--><g id="elem_businessFactory"><rect codeLine="80" fill="#F1F1F1" height="241.7031" id="businessFactory" rx="2.5" ry="2.5" style="stroke:#181818;stroke-width:0.5;" width="368" x="605" y="856"/><ellipse cx="732.25" cy="872" fill="#ADD1B2" rx="11" ry="11" style="stroke:#181818;stroke-width:1.0;"/><path d="M735.0156,867.875 Q735.1719,867.6563 735.3594,867.5469 Q735.5469,867.4375 735.7656,867.4375 Q736.1406,867.4375 736.375,867.7031 Q736.6094,867.9531 736.6094,868.5625 L736.6094,870.0156 Q736.6094,870.625 736.375,870.8906 Q736.1406,871.1563 735.7656,871.1563 Q735.4219,871.1563 735.2188,870.9531 Q735.0156,870.7656 734.9063,870.25 Q734.8594,869.8906 734.6719,869.7031 Q734.3438,869.3281 733.7344,869.1094 Q733.125,868.8906 732.5,868.8906 Q731.7344,868.8906 731.0938,869.2188 Q730.4688,869.5469 729.9688,870.2969 Q729.4844,871.0469 729.4844,872.0781 L729.4844,873.1719 Q729.4844,874.4063 730.375,875.2344 Q731.2656,876.0469 732.8594,876.0469 Q733.7969,876.0469 734.4531,875.7969 Q734.8438,875.6406 735.2656,875.2031 Q735.5313,874.9375 735.6719,874.8594 Q735.8281,874.7813 736.0313,874.7813 Q736.3594,874.7813 736.6094,875.0469 Q736.875,875.2969 736.875,875.6406 Q736.875,875.9844 736.5313,876.3906 Q736.0313,876.9688 735.2344,877.2969 Q734.1563,877.75 732.8594,877.75 Q731.3438,877.75 730.1406,877.125 Q729.1563,876.625 728.4688,875.5625 Q727.7813,874.4844 727.7813,873.2031 L727.7813,872.0469 Q727.7813,870.7188 728.3906,869.5781 Q729.0156,868.4219 730.1094,867.8125 Q731.2031,867.1875 732.4375,867.1875 Q733.1719,867.1875 733.8125,867.3594 Q734.4688,867.5156 735.0156,867.875 Z " fill="#000000"/><text fill="#000000" font-family="sans-serif" font-size="14" lengthAdjust="spacing" textLength="105" x="752.75" y="877.7285">BusinessFactory</text><line style="stroke:#181818;stroke-width:0.5;" x1="606" x2="972" y1="888" y2="888"/><line style="stroke:#181818;stroke-width:1.0;" x1="606" x2="972" y1="896" y2="896"/><ellipse cx="616" cy="910.3047" fill="#84BE84" rx="3" ry="3" style="stroke:#038048;stroke-width:1.0;"/><text fill="#000000" font-family="sans-serif" font-size="14" lengthAdjust="spacing" text-decoration="underline" textLength="224" x="625" y="914.5332">forAuth(app, mongoClient, req, res)</text><ellipse cx="616" cy="927.9141" fill="#84BE84" rx="3" ry="3" style="stroke:#038048;stroke-width:1.0;"/><text fill="#000000" font-family="sans-serif" font-size="14" lengthAdjust="spacing" text-decoration="underline" textLength="252" x="625" y="932.1426">forShExDoc(app, mongoClient, req, res)</text><ellipse cx="616" cy="945.5234" fill="#84BE84" rx="3" ry="3" style="stroke:#038048;stroke-width:1.0;"/><text fill="#000000" font-family="sans-serif" font-size="14" lengthAdjust="spacing" text-decoration="underline" textLength="224" x="625" y="949.752">forUser(app, mongoClient, req, res)</text><text fill="#000000" font-family="sans-serif" font-size="14" lengthAdjust="spacing" textLength="4" x="625" y="967.3613"> </text><ellipse cx="616" cy="980.7422" fill="#84BE84" rx="3" ry="3" style="stroke:#038048;stroke-width:1.0;"/><text fill="#000000" font-family="sans-serif" font-size="14" lengthAdjust="spacing" text-decoration="underline" textLength="275" x="625" y="984.9707">forRenderIndex(app, mongoClient, req, res)</text><ellipse cx="616" cy="998.3516" fill="#84BE84" rx="3" ry="3" style="stroke:#038048;stroke-width:1.0;"/><text fill="#000000" font-family="sans-serif" font-size="14" lengthAdjust="spacing" text-decoration="underline" textLength="274" x="625" y="1002.5801">forRenderError(app, mongoClient, req, res)</text><ellipse cx="616" cy="1015.9609" fill="#84BE84" rx="3" ry="3" style="stroke:#038048;stroke-width:1.0;"/><text fill="#000000" font-family="sans-serif" font-size="14" lengthAdjust="spacing" text-decoration="underline" textLength="277" x="625" y="1020.1895">forRenderLogin(app, mongoClient, req, res)</text><ellipse cx="616" cy="1033.5703" fill="#84BE84" rx="3" ry="3" style="stroke:#038048;stroke-width:1.0;"/><text fill="#000000" font-family="sans-serif" font-size="14" lengthAdjust="spacing" text-decoration="underline" textLength="295" x="625" y="1037.7988">forRenderRegister(app, mongoClient, req, res)</text><ellipse cx="616" cy="1051.1797" fill="#84BE84" rx="3" ry="3" style="stroke:#038048;stroke-width:1.0;"/><text fill="#000000" font-family="sans-serif" font-size="14" lengthAdjust="spacing" text-decoration="underline" textLength="307" x="625" y="1055.4082">forRenderUnregister(app, mongoClient, req, res)</text><ellipse cx="616" cy="1068.7891" fill="#84BE84" rx="3" ry="3" style="stroke:#038048;stroke-width:1.0;"/><text fill="#000000" font-family="sans-serif" font-size="14" lengthAdjust="spacing" text-decoration="underline" textLength="342" x="625" y="1073.0176">forRenderCreateShExDoc(app, mongoClient, req, res)</text><ellipse cx="616" cy="1086.3984" fill="#84BE84" rx="3" ry="3" style="stroke:#038048;stroke-width:1.0;"/><text fill="#000000" font-family="sans-serif" font-size="14" lengthAdjust="spacing" text-decoration="underline" textLength="299" x="625" y="1090.627">forRenderShExDoc(app, mongoClient, req, res)</text></g><!--MD5=[2c548c0972c8df6e9ecba43af5288b86]
link getRegisterCommand to businessFactory--><g id="link_getRegisterCommand_businessFactory"><path codeLine="96" d="M470.47,977 C508.29,977 554.38,977 599.59,977 " fill="none" id="getRegisterCommand-to-businessFactory" style="stroke:#181818;stroke-width:1.0;"/><polygon fill="#181818" points="604.81,977,595.81,973,599.81,977,595.81,981,604.81,977" style="stroke:#181818;stroke-width:1.0;"/></g><!--MD5=[50150045692ae762f2bb78b16e6fc000]
link postRegisterCommand to businessFactory--><g id="link_postRegisterCommand_businessFactory"><path codeLine="97" d="M472.94,1055.96 C510.3,1046.6 555.38,1035.3 599.62,1024.21 " fill="none" id="postRegisterCommand-to-businessFactory" style="stroke:#181818;stroke-width:1.0;"/><polygon fill="#181818" points="604.73,1022.93,595.0286,1021.2323,599.8793,1024.1427,596.9689,1028.9934,604.73,1022.93" style="stroke:#181818;stroke-width:1.0;"/></g><!--MD5=[e645720a2f66555979e793bed5522a04]
link getUnregisterCommand to businessFactory--><g id="link_getUnregisterCommand_businessFactory"><path codeLine="98" d="M476.05,1160.17 C506.4,1152.23 539.87,1141.61 569,1128 C586.17,1119.98 603.45,1110.66 620.38,1100.65 " fill="none" id="getUnregisterCommand-to-businessFactory" style="stroke:#181818;stroke-width:1.0;"/><polygon fill="#181818" points="624.68,1098.09,614.9,1099.2522,620.3825,1100.6457,618.989,1106.1282,624.68,1098.09" style="stroke:#181818;stroke-width:1.0;"/></g><!--MD5=[4419b62c1f6ce0e15df6ce415855056d]
link postUnregisterCommand to businessFactory--><g id="link_postUnregisterCommand_businessFactory"><path codeLine="99" d="M478.77,1265.16 C509.14,1257.52 541.95,1246.07 569,1229 C620.63,1196.42 666.84,1148 703.36,1102.28 " fill="none" id="postUnregisterCommand-to-businessFactory" style="stroke:#181818;stroke-width:1.0;"/><polygon fill="#181818" points="706.64,1098.15,697.9166,1102.722,703.5358,1102.0696,704.1881,1107.6888,706.64,1098.15" style="stroke:#181818;stroke-width:1.0;"/></g><!--MD5=[8116d58dee92348228ec19c481462665]
link getLoginCommand to businessFactory--><g id="link_getLoginCommand_businessFactory"><path codeLine="100" d="M461.38,1372.79 C496.86,1365.9 537.96,1353.25 569,1330 C645.97,1272.34 702.17,1178.98 738.36,1102.74 " fill="none" id="getLoginCommand-to-businessFactory" style="stroke:#181818;stroke-width:1.0;"/><polygon fill="#181818" points="740.5,1098.21,733.0515,1104.6536,738.3731,1102.7351,740.2916,1108.0567,740.5,1098.21" style="stroke:#181818;stroke-width:1.0;"/></g><!--MD5=[01f340b1030a2c096ee6d17eeb90e0a8]
link postLoginCommand to businessFactory--><g id="link_postLoginCommand_businessFactory"><path codeLine="101" d="M463.88,1474.96 C499.29,1468.32 539.61,1455.54 569,1431 C669.66,1346.92 727.52,1205.69 758.19,1103.04 " fill="none" id="postLoginCommand-to-businessFactory" style="stroke:#181818;stroke-width:1.0;"/><polygon fill="#181818" points="759.63,1098.18,753.2289,1105.6651,758.2037,1102.9723,760.8965,1107.9471,759.63,1098.18" style="stroke:#181818;stroke-width:1.0;"/></g><!--MD5=[570912b89eee7d5b861b561b0318cabc]
link getLogoutCommand to businessFactory--><g id="link_getLogoutCommand_businessFactory"><path codeLine="102" d="M465.64,1576.75 C501,1570.27 540.78,1557.39 569,1532 C692.99,1420.44 747.64,1229.65 771.13,1103.44 " fill="none" id="getLogoutCommand-to-businessFactory" style="stroke:#181818;stroke-width:1.0;"/><polygon fill="#181818" points="772.09,1098.23,766.5341,1106.3622,771.1893,1103.1482,774.4033,1107.8033,772.09,1098.23" style="stroke:#181818;stroke-width:1.0;"/></g><!--MD5=[3a05b618fcd1e0ec77e697a16bdab161]
link getCreateShExDocCommand to businessFactory--><g id="link_getCreateShExDocCommand_businessFactory"><path codeLine="104" d="M493.54,443.7 C520.54,451.12 547.79,462.76 569,481 C679.68,576.17 736.63,738.03 764.33,850.88 " fill="none" id="getCreateShExDocCommand-to-businessFactory" style="stroke:#181818;stroke-width:1.0;"/><polygon fill="#181818" points="765.55,855.88,767.3081,846.1893,764.3675,851.0218,759.535,848.0813,765.55,855.88" style="stroke:#181818;stroke-width:1.0;"/></g><!--MD5=[7d20882de1ce91130743e3ef5ebc9eb6]
link postCreateShExDocCommand to businessFactory--><g id="link_postCreateShExDocCommand_businessFactory"><path codeLine="105" d="M496.29,547.1 C522.05,554.51 548.03,565.56 569,582 C656.14,650.33 713.79,763.47 747.96,851.2 " fill="none" id="postCreateShExDocCommand-to-businessFactory" style="stroke:#181818;stroke-width:1.0;"/><polygon fill="#181818" points="749.77,855.88,750.2665,846.0437,747.9722,851.2144,742.8015,848.9201,749.77,855.88" style="stroke:#181818;stroke-width:1.0;"/></g><!--MD5=[1ae5a9472cbfc3a69402b20faa721f43]
link getShExDocCommand to businessFactory--><g id="link_getShExDocCommand_businessFactory"><path codeLine="106" d="M472.01,644.35 C504.5,651.62 540.41,663.53 569,683 C631.8,725.78 683.65,792.59 721.12,851.73 " fill="none" id="getShExDocCommand-to-businessFactory" style="stroke:#181818;stroke-width:1.0;"/><polygon fill="#181818" points="723.79,855.97,722.3884,846.2214,721.1297,851.7364,715.6147,850.4778,723.79,855.97" style="stroke:#181818;stroke-width:1.0;"/></g><!--MD5=[266d773102a39be1fdcd18225a1dec3d]
link getLeaveOwnershipCommand to businessFactory--><g id="link_getLeaveOwnershipCommand_businessFactory"><path codeLine="107" d="M496.64,755.57 C521.3,762.7 546.7,772 569,784 C603.06,802.33 636.27,826.89 666.12,852.33 " fill="none" id="getLeaveOwnershipCommand-to-businessFactory" style="stroke:#181818;stroke-width:1.0;"/><polygon fill="#181818" points="670.12,855.76,665.8899,846.8659,666.3237,852.506,660.6835,852.9399,670.12,855.76" style="stroke:#181818;stroke-width:1.0;"/></g><!--MD5=[d2d9c18179fbffe4d4c92109b38ae637]
link postAddOwnerCommand to businessFactory--><g id="link_postAddOwnerCommand_businessFactory"><path codeLine="108" d="M478.72,868.02 C515,880.81 557.88,895.91 599.97,910.75 " fill="none" id="postAddOwnerCommand-to-businessFactory" style="stroke:#181818;stroke-width:1.0;"/><polygon fill="#181818" points="604.83,912.46,597.684,905.6825,600.1174,910.7892,595.0107,913.2226,604.83,912.46" style="stroke:#181818;stroke-width:1.0;"/></g><!--MD5=[e212fda75d7b7ba01a13b4bc3428fb49]
link getIndexCommand to businessFactory--><g id="link_getIndexCommand_businessFactory"><path codeLine="110" d="M460.26,325.9 C497.2,335.7 539.9,352.72 569,382 C696.08,509.86 750.19,717.63 772.69,850.74 " fill="none" id="getIndexCommand-to-businessFactory" style="stroke:#181818;stroke-width:1.0;"/><polygon fill="#181818" points="773.54,855.84,775.9925,846.3014,772.7111,850.9092,768.1033,847.6277,773.54,855.84" style="stroke:#181818;stroke-width:1.0;"/></g><!--MD5=[9b54a856fcb1bc2fed8533cdf67177ba]
link appLayerFactory to getRegisterCommand--><g id="link_appLayerFactory_getRegisterCommand"><path codeLine="112" d="M163.21,923.1 C202.12,932.64 251.02,944.63 292.82,954.88 " fill="none" id="appLayerFactory-to-getRegisterCommand" style="stroke:#181818;stroke-width:1.0;"/><polygon fill="#181818" points="297.88,956.12,290.0854,950.0997,293.0226,954.9342,288.1881,957.8715,297.88,956.12" style="stroke:#181818;stroke-width:1.0;"/></g><!--MD5=[d68049e916d6e653b4c17a7431c7a8ae]
link appLayerFactory to postRegisterCommand--><g id="link_appLayerFactory_postRegisterCommand"><path codeLine="113" d="M113.5,930.29 C137.06,957.45 178.67,1001.02 223,1027 C243.67,1039.11 267.55,1048.7 290.45,1056.14 " fill="none" id="appLayerFactory-to-postRegisterCommand" style="stroke:#181818;stroke-width:1.0;"/><polygon fill="#181818" points="295.32,1057.69,287.9751,1051.1285,290.5597,1056.1604,285.5278,1058.745,295.32,1057.69" style="stroke:#181818;stroke-width:1.0;"/></g><!--MD5=[da91eba4853fb0ae3f8839159e55f67b]
link appLayerFactory to getUnregisterCommand--><g id="link_appLayerFactory_getUnregisterCommand"><path codeLine="114" d="M101.08,930.29 C116.53,975.82 155.98,1074.28 223,1128 C241.48,1142.81 264.34,1153.36 286.94,1160.85 " fill="none" id="appLayerFactory-to-getUnregisterCommand" style="stroke:#181818;stroke-width:1.0;"/><polygon fill="#181818" points="291.75,1162.41,284.4051,1155.8485,286.9897,1160.8804,281.9578,1163.465,291.75,1162.41" style="stroke:#181818;stroke-width:1.0;"/></g><!--MD5=[ab022e151285ee963a9ff7a84b01add9]
link appLayerFactory to postUnregisterCommand--><g id="link_appLayerFactory_postUnregisterCommand"><path codeLine="115" d="M96.19,930.18 C104.1,989.8 132.74,1145.08 223,1229 C240.14,1244.94 262.27,1255.9 284.57,1263.43 " fill="none" id="appLayerFactory-to-postUnregisterCommand" style="stroke:#181818;stroke-width:1.0;"/><polygon fill="#181818" points="289.33,1264.99,282.0209,1258.3887,284.5781,1263.4346,279.5322,1265.9918,289.33,1264.99" style="stroke:#181818;stroke-width:1.0;"/></g><!--MD5=[14fc86d41f840469a6e08dc4a2774a75]
link appLayerFactory to getLoginCommand--><g id="link_appLayerFactory_getLoginCommand"><path codeLine="116" d="M93.52,930.24 C94.93,1001.85 109,1214.61 223,1330 C243.92,1351.17 273.6,1363.57 301.73,1370.82 " fill="none" id="appLayerFactory-to-getLoginCommand" style="stroke:#181818;stroke-width:1.0;"/><polygon fill="#181818" points="306.59,1372.03,298.8121,1365.9881,301.7359,1370.8308,296.8933,1373.7546,306.59,1372.03" style="stroke:#181818;stroke-width:1.0;"/></g><!--MD5=[3c8ff83a497f03de3516ffc9ac1a8343]
link appLayerFactory to postLoginCommand--><g id="link_appLayerFactory_postLoginCommand"><path codeLine="117" d="M96.32,930.07 C107.62,1022.82 152.54,1355.67 223,1431 C242.87,1452.25 271.57,1464.68 299.18,1471.94 " fill="none" id="appLayerFactory-to-postLoginCommand" style="stroke:#181818;stroke-width:1.0;"/><polygon fill="#181818" points="304.32,1473.24,296.5631,1467.1712,299.4701,1472.024,294.6174,1474.931,304.32,1473.24" style="stroke:#181818;stroke-width:1.0;"/></g><!--MD5=[184c5cb7fc07bbe1a855ffc61b020c3d]
link appLayerFactory to getLogoutCommand--><g id="link_appLayerFactory_getLogoutCommand"><path codeLine="118" d="M95.3,930.29 C103.47,1034.19 140.28,1440.15 223,1532 C242.1,1553.21 269.99,1565.66 297.16,1572.94 " fill="none" id="appLayerFactory-to-getLogoutCommand" style="stroke:#181818;stroke-width:1.0;"/><polygon fill="#181818" points="302.22,1574.24,294.5138,1568.107,297.3804,1572.9837,292.5037,1575.8503,302.22,1574.24" style="stroke:#181818;stroke-width:1.0;"/></g><!--MD5=[d92f7e5ca39f4c5e303bc7aa6fb2a70b]
link appLayerFactory to getCreateShExDocCommand--><g id="link_appLayerFactory_getCreateShExDocCommand"><path codeLine="120" d="M93.47,881.93 C94.71,810.32 108.33,596.49 223,481 C235.93,467.97 252.2,458.33 269.39,451.2 " fill="none" id="appLayerFactory-to-getCreateShExDocCommand" style="stroke:#181818;stroke-width:1.0;"/><polygon fill="#181818" points="274.25,449.25,264.4081,448.8786,269.6076,451.107,267.3793,456.3064,274.25,449.25" style="stroke:#181818;stroke-width:1.0;"/></g><!--MD5=[c8208b930f74da263a7a2bd4787d9254]
link appLayerFactory to postCreateShExDocCommand--><g id="link_appLayerFactory_postCreateShExDocCommand"><path codeLine="121" d="M96.13,881.72 C103.92,821.84 132.3,665.94 223,582 C235.58,570.36 250.84,561.42 266.89,554.57 " fill="none" id="appLayerFactory-to-postCreateShExDocCommand" style="stroke:#181818;stroke-width:1.0;"/><polygon fill="#181818" points="271.89,552.51,262.0449,552.238,267.2666,554.4137,265.0909,559.6355,271.89,552.51" style="stroke:#181818;stroke-width:1.0;"/></g><!--MD5=[314d2f3fc2440ffa122d4d912b2b83d1]
link appLayerFactory to getShExDocCommand--><g id="link_appLayerFactory_getShExDocCommand"><path codeLine="122" d="M100.9,881.93 C116.16,836.28 155.48,736.91 223,683 C242.53,667.4 266.97,656.64 290.82,649.23 " fill="none" id="appLayerFactory-to-getShExDocCommand" style="stroke:#181818;stroke-width:1.0;"/><polygon fill="#181818" points="295.9,647.7,286.1285,646.4682,291.1128,649.1433,288.4377,654.1277,295.9,647.7" style="stroke:#181818;stroke-width:1.0;"/></g><!--MD5=[40356fdce813b28ff2c7c836fec799c9]
link appLayerFactory to getLeaveOwnershipCommand--><g id="link_appLayerFactory_getLeaveOwnershipCommand"><path codeLine="123" d="M113.01,881.95 C136.43,854.55 178.21,810.2 223,784 C236.55,776.08 251.48,769.27 266.63,763.47 " fill="none" id="appLayerFactory-to-getLeaveOwnershipCommand" style="stroke:#181818;stroke-width:1.0;"/><polygon fill="#181818" points="271.33,761.7,261.4985,761.1148,266.6484,763.4556,264.3075,768.6054,271.33,761.7" style="stroke:#181818;stroke-width:1.0;"/></g><!--MD5=[f8ce5672dfb8b9498001b777cf3f760f]
link appLayerFactory to postAddOwnerCommand--><g id="link_appLayerFactory_postAddOwnerCommand"><path codeLine="124" d="M163.21,888.9 C199.32,880.05 244.04,869.08 283.69,859.36 " fill="none" id="appLayerFactory-to-postAddOwnerCommand" style="stroke:#181818;stroke-width:1.0;"/><polygon fill="#181818" points="289,858.05,279.3069,856.3051,284.1434,859.2391,281.2095,864.0756,289,858.05" style="stroke:#181818;stroke-width:1.0;"/></g><!--MD5=[d826499d4e0f6da083a19ba716ac33fd]
link appLayerFactory to getIndexCommand--><g id="link_appLayerFactory_getIndexCommand"><path codeLine="126" d="M96.59,881.87 C108.84,789.6 156.51,460.46 223,382 C243.43,357.89 273.82,341.97 302.65,331.57 " fill="none" id="appLayerFactory-to-getIndexCommand" style="stroke:#181818;stroke-width:1.0;"/><polygon fill="#181818" points="307.64,329.82,297.8228,329.031,302.9229,331.4781,300.4758,336.5783,307.64,329.82" style="stroke:#181818;stroke-width:1.0;"/></g><!--MD5=[db57e5461c613a1cf53fa602e9bef396]
link appLayerFactory to commandExecutor--><g id="link_appLayerFactory_commandExecutor"><path codeLine="128" d="M94.21,882 C98.18,763.68 121.27,243.55 223,126 C227.81,120.45 233.21,115.49 239.06,111.07 " fill="none" id="appLayerFactory-to-commandExecutor" style="stroke:#181818;stroke-width:1.0;"/><polygon fill="#181818" points="243.18,108.1,233.5414,110.1242,239.1259,111.0264,238.2237,116.6109,243.18,108.1" style="stroke:#181818;stroke-width:1.0;"/></g><!--MD5=[b8434ccb0049d7df98ad33d4db1f4607]
link getRegisterCommand to abstractAppLayerCommand--><g id="link_getRegisterCommand_abstractAppLayerCommand"><path codeLine="130" d="M297.95,949.9 C258.57,932.69 215.71,906.03 193,866.5 C160.52,809.94 160.52,336.06 193,279.5 C197.49,271.68 202.9,264.58 209.02,258.12 " fill="none" id="getRegisterCommand-to-abstractAppLayerCommand" style="stroke:#181818;stroke-width:1.0;"/><polygon fill="none" points="204.42,252.84,223.94,244.61,213.82,263.22,204.42,252.84" style="stroke:#181818;stroke-width:1.0;"/></g><!--MD5=[d4681efbf948794e4a9ae548e33bf2cf]
link postRegisterCommand to abstractAppLayerCommand--><g id="link_postRegisterCommand_abstractAppLayerCommand"><path codeLine="131" d="M295.38,1071.17 C255.9,1062.92 213.7,1045.55 193,1009.5 C172.8,974.33 172.8,314.67 193,279.5 C197.49,271.68 202.9,264.58 209.02,258.12 " fill="none" id="postRegisterCommand-to-abstractAppLayerCommand" style="stroke:#181818;stroke-width:1.0;"/><polygon fill="none" points="204.42,252.84,223.94,244.61,213.82,263.22,204.42,252.84" style="stroke:#181818;stroke-width:1.0;"/></g><!--MD5=[ff44a92c471ee71365d47d30a050f502]
link getUnregisterCommand to abstractAppLayerCommand--><g id="link_getUnregisterCommand_abstractAppLayerCommand"><path codeLine="132" d="M291.86,1171.41 C253.42,1162.87 213.09,1145.48 193,1110.5 C170.01,1070.47 170.01,319.53 193,279.5 C197.49,271.68 202.9,264.58 209.02,258.12 " fill="none" id="getUnregisterCommand-to-abstractAppLayerCommand" style="stroke:#181818;stroke-width:1.0;"/><polygon fill="none" points="204.42,252.84,223.94,244.61,213.82,263.22,204.42,252.84" style="stroke:#181818;stroke-width:1.0;"/></g><!--MD5=[694221ef339d3809cb26da6afe0ed30a]
link postUnregisterCommand to abstractAppLayerCommand--><g id="link_postUnregisterCommand_abstractAppLayerCommand"><path codeLine="133" d="M289.34,1271.84 C251.67,1263.1 212.65,1245.71 193,1211.5 C167.21,1166.6 167.21,324.4 193,279.5 C197.49,271.68 202.9,264.58 209.02,258.12 " fill="none" id="postUnregisterCommand-to-abstractAppLayerCommand" style="stroke:#181818;stroke-width:1.0;"/><polygon fill="none" points="204.42,252.84,223.94,244.61,213.82,263.22,204.42,252.84" style="stroke:#181818;stroke-width:1.0;"/></g><!--MD5=[5e02a9c7b6323c3dee04c915c2942779]
link getLoginCommand to abstractAppLayerCommand--><g id="link_getLoginCommand_abstractAppLayerCommand"><path codeLine="134" d="M306.82,1376.33 C264.33,1369.12 215.72,1352.06 193,1312.5 C164.42,1262.74 164.42,329.26 193,279.5 C197.49,271.68 202.9,264.58 209.02,258.12 " fill="none" id="getLoginCommand-to-abstractAppLayerCommand" style="stroke:#181818;stroke-width:1.0;"/><polygon fill="none" points="204.42,252.84,223.94,244.61,213.82,263.22,204.42,252.84" style="stroke:#181818;stroke-width:1.0;"/></g><!--MD5=[4136c88b727546699ac56c9b8de2ab4b]
link postLoginCommand to abstractAppLayerCommand--><g id="link_postLoginCommand_abstractAppLayerCommand"><path codeLine="135" d="M304.36,1476.9 C262.46,1469.46 215.28,1452.3 193,1413.5 C161.62,1358.87 161.62,334.13 193,279.5 C197.49,271.68 202.9,264.58 209.02,258.12 " fill="none" id="postLoginCommand-to-abstractAppLayerCommand" style="stroke:#181818;stroke-width:1.0;"/><polygon fill="none" points="204.42,252.84,223.94,244.61,213.82,263.22,204.42,252.84" style="stroke:#181818;stroke-width:1.0;"/></g><!--MD5=[67224946d736afaf5e694530e4ad5adc]
link getLogoutCommand to abstractAppLayerCommand--><g id="link_getLogoutCommand_abstractAppLayerCommand"><path codeLine="136" d="M302.37,1577.54 C260.98,1569.91 214.93,1552.68 193,1514.5 C158.83,1455 158.83,339 193,279.5 C197.49,271.68 202.9,264.58 209.02,258.12 " fill="none" id="getLogoutCommand-to-abstractAppLayerCommand" style="stroke:#181818;stroke-width:1.0;"/><polygon fill="none" points="204.42,252.84,223.94,244.61,213.82,263.22,204.42,252.84" style="stroke:#181818;stroke-width:1.0;"/></g><!--MD5=[7f05729d139430273acbfa04eef32281]
link getCreateShExDocCommand to abstractAppLayerCommand--><g id="link_getCreateShExDocCommand_abstractAppLayerCommand"><path codeLine="138" d="M274.27,427.72 C241.44,420.51 209.75,405.65 193,376.5 C171.53,339.12 171.53,316.88 193,279.5 C197.49,271.68 202.9,264.58 209.02,258.12 " fill="none" id="getCreateShExDocCommand-to-abstractAppLayerCommand" style="stroke:#181818;stroke-width:1.0;"/><polygon fill="none" points="204.42,252.84,223.94,244.61,213.82,263.22,204.42,252.84" style="stroke:#181818;stroke-width:1.0;"/></g><!--MD5=[0fe6fcb6bfb7647c8ad20ba8da231a81]
link postCreateShExDocCommand to abstractAppLayerCommand--><g id="link_postCreateShExDocCommand_abstractAppLayerCommand"><path codeLine="139" d="M271.91,519.16 C240.11,509.35 209.62,492.44 193,463.5 C172.63,428.04 172.63,314.96 193,279.5 C197.49,271.68 202.9,264.58 209.02,258.12 " fill="none" id="postCreateShExDocCommand-to-abstractAppLayerCommand" style="stroke:#181818;stroke-width:1.0;"/><polygon fill="none" points="204.42,252.84,223.94,244.61,213.82,263.22,204.42,252.84" style="stroke:#181818;stroke-width:1.0;"/></g><!--MD5=[0fb46dc4de39f9cfa389c07cab913809]
link getShExDocCommand to abstractAppLayerCommand--><g id="link_getShExDocCommand_abstractAppLayerCommand"><path codeLine="140" d="M295.88,626.27 C256.26,618.06 213.79,600.7 193,564.5 C161.46,509.58 161.46,334.42 193,279.5 C197.49,271.68 202.9,264.58 209.02,258.12 " fill="none" id="getShExDocCommand-to-abstractAppLayerCommand" style="stroke:#181818;stroke-width:1.0;"/><polygon fill="none" points="204.42,252.84,223.94,244.61,213.82,263.22,204.42,252.84" style="stroke:#181818;stroke-width:1.0;"/></g><!--MD5=[1edcfb24ed56ce7e49435f2fba8ee2ad]
link getLeaveOwnershipCommand to abstractAppLayerCommand--><g id="link_getLeaveOwnershipCommand_abstractAppLayerCommand"><path codeLine="141" d="M271.41,721 C239.79,711.17 209.54,694.29 193,665.5 C171.64,628.31 171.64,316.69 193,279.5 C197.49,271.68 202.9,264.58 209.02,258.12 " fill="none" id="getLeaveOwnershipCommand-to-abstractAppLayerCommand" style="stroke:#181818;stroke-width:1.0;"/><polygon fill="none" points="204.42,252.84,223.94,244.61,213.82,263.22,204.42,252.84" style="stroke:#181818;stroke-width:1.0;"/></g><!--MD5=[c36d1cfd4c88f45038d7c436a655d531]
link postAddOwnerCommand to abstractAppLayerCommand--><g id="link_postAddOwnerCommand_abstractAppLayerCommand"><path codeLine="142" d="M288.84,826.72 C251.32,817.95 212.56,800.56 193,766.5 C166.05,719.58 166.05,326.42 193,279.5 C197.49,271.68 202.9,264.58 209.02,258.12 " fill="none" id="postAddOwnerCommand-to-abstractAppLayerCommand" style="stroke:#181818;stroke-width:1.0;"/><polygon fill="none" points="204.42,252.84,223.94,244.61,213.82,263.22,204.42,252.84" style="stroke:#181818;stroke-width:1.0;"/></g><!--MD5=[6ebaaab252134608cad21d9d34930e81]
link getIndexCommand to abstractAppLayerCommand--><g id="link_getIndexCommand_abstractAppLayerCommand"><path codeLine="144" d="M384,280 C384,274.94 384,269.89 384,264.84 " fill="none" id="getIndexCommand-to-abstractAppLayerCommand" style="stroke:#181818;stroke-width:1.0;"/><polygon fill="none" points="377,264.72,384,244.72,391,264.72,377,264.72" style="stroke:#181818;stroke-width:1.0;"/></g><!--MD5=[a5d995894406fb445dc55dd13d9f9d34]
@startuml ShareYASHE - Classes structure - Application layer
left to right direction

package "Application layer" as appLayer {
    class "AppLayerFactory" as appLayerFactory {
    }

    class "CommandExecutor" as commandExecutor {
        - -
        +execute(req, res, AbstractAppLayerCommand)
    }

    abstract class "AbstractAppLayerCommand" as abstractAppLayerCommand {
        - -
        +AbstractAppLayerCommand(req, res, ObjectId)
        {abstract}+execute(req, res)
        #asObjectId(stringID)
    }

    class "GetIndexCommand" as getIndexCommand {
        - -
        +execute(req, res)
    }

    package "ShExDoc" as appLayerShExDoc {
        class "GetCreateShExDocCommand" as getCreateShExDocCommand {
            - -
            +execute(req, res)
        }
        class "PostCreateShExDocCommand" as postCreateShExDocCommand {
            - -
            +execute(req, res)
        }
        class "GetShExDocCommand" as getShExDocCommand {
            - -
            +execute(req, res)
        }
        class "GetLeaveOwnershipCommand" as getLeaveOwnershipCommand {
            - -
            +execute(req, res)
        }
        class "PostAddOwnerCommand" as postAddOwnerCommand {
            - -
            +execute(req, res)
        }
    }

        package "Auth" as appLayerAuth {
        class "GetRegisterCommand" as getRegisterCommand {
            - -
            +execute(req, res)
        }
        class "PostRegisterCommand" as postRegisterCommand {
            - -
            +execute(req, res)
        }
        class "GetUnregisterCommand" as getUnregisterCommand {
            - -
            +execute(req, res)
        }
        class "PostUnregisterCommand" as postUnregisterCommand {
            - -
            +execute(req, res)
        }
        class "GetLoginCommand" as getLoginCommand {
            - -
            +execute(req, res)
        }
        class "PostLoginCommand" as postLoginCommand {
            - -
            +execute(req, res)
        }
        class "GetLogoutCommand" as getLogoutCommand {
            - -
            +execute(req, res)
        }
    }
}

package "Business layer" as busLayer {
    class "BusinessFactory" as businessFactory {
        - -
        {static}+forAuth(app, mongoClient, req, res)
        {static}+forShExDoc(app, mongoClient, req, res)
        {static}+forUser(app, mongoClient, req, res)

        {static}+forRenderIndex(app, mongoClient, req, res)
        {static}+forRenderError(app, mongoClient, req, res)
        {static}+forRenderLogin(app, mongoClient, req, res)
        {static}+forRenderRegister(app, mongoClient, req, res)
        {static}+forRenderUnregister(app, mongoClient, req, res)
        {static}+forRenderCreateShExDoc(app, mongoClient, req, res)
        {static}+forRenderShExDoc(app, mongoClient, req, res)
    }
}

getRegisterCommand - -> businessFactory
postRegisterCommand - -> businessFactory
getUnregisterCommand - -> businessFactory
postUnregisterCommand - -> businessFactory
getLoginCommand - -> businessFactory
postLoginCommand - -> businessFactory
getLogoutCommand - -> businessFactory

getCreateShExDocCommand - -> businessFactory
postCreateShExDocCommand - -> businessFactory
getShExDocCommand - -> businessFactory
getLeaveOwnershipCommand - -> businessFactory
postAddOwnerCommand - -> businessFactory

getIndexCommand - -> businessFactory

appLayerFactory - -> getRegisterCommand
appLayerFactory - -> postRegisterCommand
appLayerFactory - -> getUnregisterCommand
appLayerFactory - -> postUnregisterCommand
appLayerFactory - -> getLoginCommand
appLayerFactory - -> postLoginCommand
appLayerFactory - -> getLogoutCommand

appLayerFactory - -> getCreateShExDocCommand
appLayerFactory - -> postCreateShExDocCommand
appLayerFactory - -> getShExDocCommand
appLayerFactory - -> getLeaveOwnershipCommand
appLayerFactory - -> postAddOwnerCommand

appLayerFactory - -> getIndexCommand

appLayerFactory - -> commandExecutor

getRegisterCommand -right-|> abstractAppLayerCommand
postRegisterCommand -right-|> abstractAppLayerCommand
getUnregisterCommand -right-|> abstractAppLayerCommand
postUnregisterCommand -right-|> abstractAppLayerCommand
getLoginCommand -right-|> abstractAppLayerCommand
postLoginCommand -right-|> abstractAppLayerCommand
getLogoutCommand -right-|> abstractAppLayerCommand

getCreateShExDocCommand -right-|> abstractAppLayerCommand
postCreateShExDocCommand -right-|> abstractAppLayerCommand
getShExDocCommand -right-|> abstractAppLayerCommand
getLeaveOwnershipCommand -right-|> abstractAppLayerCommand
postAddOwnerCommand -right-|> abstractAppLayerCommand

getIndexCommand -right-|> abstractAppLayerCommand

@enduml

PlantUML version 1.2022.7(Mon Aug 22 19:01:30 CEST 2022)
(GPL source distribution)
Java Runtime: OpenJDK Runtime Environment
JVM: OpenJDK 64-Bit Server VM
Default Encoding: Cp1252
Language: es
Country: ES
--></g></svg>