<?xml version="1.0" encoding="UTF-8" standalone="no"?><svg xmlns="http://www.w3.org/2000/svg" xmlns:xlink="http://www.w3.org/1999/xlink" contentStyleType="text/css" height="306px" preserveAspectRatio="none" style="width:403px;height:306px;background:#FFFFFF;" version="1.1" viewBox="0 0 403 306" width="403px" zoomAndPan="magnify"><defs/><g><g id="cluster_##3"><path d="M73.0636,113.1749 C76.7829,102.5421 86.8295,100.9336 93.6124,109.9751 C100.4961,99.7964 110.3396,101.8899 116.0672,111.3004 C122.0042,100.4826 132.9584,101.0717 138.2575,111.9528 C142.642,100.2652 149.3994,98.6031 158.0271,107.9682 C165.6289,95.2992 173.3755,95.2364 181.2346,107.731 C185.7526,97.9794 194.8398,98.8098 199.7585,107.3247 C206.558,97.5114 218.5706,96.8649 223.6333,109.1972 C230.655,101.0643 237.3447,101.1146 243.7398,109.9402 C250.738,97.8644 259.0263,98.7628 266.5214,109.4428 C273.7468,102.3012 279.8251,100.6785 285.3084,111.2866 C291.8084,99.1908 299.566,99.7333 308.5262,108.556 C317.4429,99.8657 325.3223,99.2724 331.5872,111.4819 C338.234,104.4564 345.6369,102.5354 350.4096,113.4483 C360.3289,102.9575 371.3199,102.4156 377.4,117.5 C377.8821,117.3152 378.2455,117.4085 378.2511,118.0135 C394.2148,126.9623 391.6394,136.9721 379.2015,146.8567 C391.0093,152.5641 391.5924,162.9882 382.2196,171.3097 C393.8243,179.0144 394.7286,188.2179 384.6526,197.9059 C392.927,205.7281 392.4473,215.0604 381.1622,219.7584 C396.3991,228.4952 393.2369,240.8515 379.8736,248.2968 C389.0159,262.5001 388.6347,272.1779 370.4,277.5 C372.365,277.8677 372.4648,279.1269 371.413,280.5099 C364.9594,291.2362 356.6103,291.4303 350.2693,280.4005 C345.5607,289.7984 335.7701,290.4823 330.1128,281.4373 C324.3172,293.912 316.8465,297.2853 306.4205,286.0677 C301.8223,293.9329 293.1136,296.3299 288.1535,286.44 C280.4664,296.8211 273.7022,294.0451 267.1779,285.1731 C262.1211,295.0202 252.8113,297.2366 245.2644,288.0382 C239.8447,299.4273 230.2999,299.2929 223.104,289.9355 C215.939,298.8298 206.7561,298.4478 202.054,287.3432 C196.0352,296.7877 185.4286,299.1982 179.0277,287.7645 C172.456,297.3437 162.3837,297.6585 157.4411,286.1007 C149.8032,296.2159 141.5934,293.6544 135.9546,283.9352 C130.5287,291.3813 121.8407,290.3551 118.1389,281.9923 C112.468,293.8789 101.608,291.28 96.123,281.8007 C80.2701,291.8222 70.6007,287.574 64.4,270.5 C66.8831,270.358 67.5906,272.0763 66.55,274.0615 C54.7412,265.238 55.7617,257.3418 66.9257,248.8607 C53.0089,240.166 53.5938,231.3723 64.9658,220.9047 C52.7155,216.2525 48.4508,205.7227 60.5699,196.6532 C49.7104,186.5623 50.6378,176.0925 64.272,169.3188 C51.635,159.9633 54.2903,151.6147 65.1256,143.0211 C48.9062,131.3385 56.0465,116.0913 71.4,110.5 C73.0037,110.4581 74.0518,111.6047 73.0636,113.1749 " fill="none" style="stroke:#181818;stroke-width:1.0;"/></g><!--MD5=[d2c38569b2d760d62cad8a4d5ea164da]
entity httpServer--><g id="elem_httpServer"><rect fill="#F1F1F1" height="58.2188" rx="2.5" ry="2.5" style="stroke:#181818;stroke-width:0.5;" width="113" x="88.9" y="118.5"/><polygon fill="#F1F1F1" points="184.9,123.5,184.9,137.5,196.9,137.5,196.9,129.5,190.9,123.5,184.9,123.5" style="stroke:#181818;stroke-width:0.5;"/><line style="stroke:#181818;stroke-width:0.5;" x1="190.9" x2="190.9" y1="123.5" y2="129.5"/><line style="stroke:#181818;stroke-width:0.5;" x1="196.9" x2="190.9" y1="129.5" y2="129.5"/><text fill="#000000" font-family="sans-serif" font-size="14" lengthAdjust="spacing" textLength="83" x="98.9" y="146.0332">ShareYASHE</text><text fill="#000000" font-family="sans-serif" font-size="14" lengthAdjust="spacing" textLength="80" x="98.9" y="163.6426">HTTP server</text></g><!--MD5=[742c85e404709308bddaf6142f9e0a26]
entity wsServer--><g id="elem_wsServer"><rect fill="#F1F1F1" height="58.2188" rx="2.5" ry="2.5" style="stroke:#181818;stroke-width:0.5;" width="146" x="72.4" y="211.5"/><polygon fill="#F1F1F1" points="201.4,216.5,201.4,230.5,213.4,230.5,213.4,222.5,207.4,216.5,201.4,216.5" style="stroke:#181818;stroke-width:0.5;"/><line style="stroke:#181818;stroke-width:0.5;" x1="207.4" x2="207.4" y1="216.5" y2="222.5"/><line style="stroke:#181818;stroke-width:0.5;" x1="213.4" x2="207.4" y1="222.5" y2="222.5"/><text fill="#000000" font-family="sans-serif" font-size="14" lengthAdjust="spacing" textLength="83" x="82.4" y="239.0332">ShareYASHE</text><text fill="#000000" font-family="sans-serif" font-size="14" lengthAdjust="spacing" textLength="116" x="82.4" y="256.6426">WebSocket server</text></g><!--MD5=[7468467f3b6b392f1d176d828c753b77]
entity db--><g id="elem_db"><path d="M278.4,172.5 C278.4,162.5 323.9,162.5 323.9,162.5 C323.9,162.5 369.4,162.5 369.4,172.5 L369.4,216.7188 C369.4,226.7188 323.9,226.7188 323.9,226.7188 C323.9,226.7188 278.4,226.7188 278.4,216.7188 L278.4,172.5 " fill="#F1F1F1" style="stroke:#181818;stroke-width:0.5;"/><path d="M278.4,172.5 C278.4,182.5 323.9,182.5 323.9,182.5 C323.9,182.5 369.4,182.5 369.4,172.5 " fill="none" style="stroke:#181818;stroke-width:0.5;"/><text fill="#000000" font-family="sans-serif" font-size="14" lengthAdjust="spacing" textLength="71" x="288.4" y="201.0332">Documents</text><text fill="#000000" font-family="sans-serif" font-size="14" lengthAdjust="spacing" textLength="59" x="288.4" y="218.6426">database</text></g><!--MD5=[8fc3522a43f8c7199df5e09e5bb0188e]
entity user--><g id="elem_user"><ellipse cx="145.4" cy="14" fill="#F1F1F1" rx="8" ry="8" style="stroke:#181818;stroke-width:0.5;"/><path d="M145.4,22 L145.4,49 M132.4,30 L158.4,30 M145.4,49 L132.4,64 M145.4,49 L158.4,64 " fill="none" style="stroke:#181818;stroke-width:0.5;"/><text fill="#000000" font-family="sans-serif" font-size="14" lengthAdjust="spacing" textLength="29" x="130.9" y="80.0332">User</text></g><!--MD5=[6f231c1cfaaf0e63c98f4755a81b481a]
reverse link httpServer to user--><g id="link_httpServer_user"><path d="M145.4,113.01 C145.4,103.21 145.4,93.41 145.4,83.62 " fill="none" id="httpServer-backto-user" style="stroke:#181818;stroke-width:1.0;"/><polygon fill="#181818" points="145.4,118.13,149.4,109.13,145.4,113.13,141.4,109.13,145.4,118.13" style="stroke:#181818;stroke-width:1.0;"/></g><!--MD5=[0afa15009c346bbe3b04504f89a4f2ef]
reverse link wsServer to user--><g id="link_wsServer_user"><path d="M67.13,218.02 C47.65,208.4 29.24,194.88 18.4,176 C6,154.42 6.09,141.63 18.4,120 C42.88,76.97 102.63,55.91 130.56,48.15 " fill="none" id="wsServer-backto-user" style="stroke:#181818;stroke-width:1.0;"/><polygon fill="#181818" points="72.1,220.38,65.6757,212.9149,67.5804,218.2414,62.2539,220.1462,72.1,220.38" style="stroke:#181818;stroke-width:1.0;"/></g><!--MD5=[f1325fcdaf066c5bd86028c99e22e0c3]
link httpServer to db--><g id="link_httpServer_db"><path d="M202.24,162.37 C225.06,168.45 251.23,175.42 273.36,181.31 " fill="none" id="httpServer-to-db" style="stroke:#181818;stroke-width:1.0;"/><polygon fill="#181818" points="278.3,182.62,270.6323,176.4389,273.4684,181.3335,268.5738,184.1696,278.3,182.62" style="stroke:#181818;stroke-width:1.0;"/></g><!--MD5=[f7b5ec11ffca5148e63b93a629ef08b5]
link wsServer to db--><g id="link_wsServer_db"><path d="M218.44,221.72 C236.76,216.95 256.03,211.93 272.97,207.51 " fill="none" id="wsServer-to-db" style="stroke:#181818;stroke-width:1.0;"/><polygon fill="#181818" points="278.15,206.16,268.4293,204.5765,273.3139,207.4297,270.4607,212.3143,278.15,206.16" style="stroke:#181818;stroke-width:1.0;"/></g><!--MD5=[22f4cc0c435bf283de51f3ecf342c350]
@startuml ShareYASHE - Deployment structure - ShareYASHE server
left to right direction

actor "User" as user

cloud {
    artifact "ShareYASHE\nHTTP server" as httpServer {
    }
    artifact "ShareYASHE\nWebSocket server" as wsServer {
    }
    database "Documents\ndatabase" as db {
    }
}

user -left-> httpServer
user -left-> wsServer

httpServer -down-> db
wsServer -down-> db

@enduml

PlantUML version 1.2022.7(Mon Aug 22 19:01:30 CEST 2022)
(GPL source distribution)
Java Runtime: OpenJDK Runtime Environment
JVM: OpenJDK 64-Bit Server VM
Default Encoding: Cp1252
Language: es
Country: ES
--></g></svg>