<?xml version="1.0" encoding="UTF-8" standalone="no"?><svg xmlns="http://www.w3.org/2000/svg" xmlns:xlink="http://www.w3.org/1999/xlink" contentStyleType="text/css" height="413px" preserveAspectRatio="none" style="width:395px;height:413px;background:#FFFFFF;" version="1.1" viewBox="0 0 395 413" width="395px" zoomAndPan="magnify"><defs/><g><!--MD5=[8a509646a725e4b29ac3346bf48b9d0c]
cluster local--><g id="cluster_local"><path d="M6,24.5 C6,14.5 97,14.5 97,14.5 C97,14.5 188,14.5 188,24.5 L188,386 C188,396 97,396 97,396 C97,396 6,396 6,386 L6,24.5 " fill="none" style="stroke:#181818;stroke-width:1.0;"/><path d="M6,24.5 C6,34.5 97,34.5 97,34.5 C97,34.5 188,34.5 188,24.5 " fill="none" style="stroke:#181818;stroke-width:1.0;"/><text fill="#000000" font-family="sans-serif" font-size="14" font-weight="bold" lengthAdjust="spacing" textLength="53" x="70.5" y="51.0332">Entities</text></g><!--MD5=[250a1d111110598ae4d9566e9df70ce6]
cluster test--><g id="cluster_test"><path d="M212,16 C212,6 295,6 295,6 C295,6 378,6 378,16 L378,212 C378,222 295,222 295,222 C295,222 212,222 212,212 L212,16 " fill="none" style="stroke:#181818;stroke-width:1.0;"/><path d="M212,16 C212,26 295,26 295,26 C295,26 378,26 378,16 " fill="none" style="stroke:#181818;stroke-width:1.0;"/><text fill="#000000" font-family="sans-serif" font-size="14" font-weight="bold" lengthAdjust="spacing" textLength="44" x="273" y="42.5332">Ydocs</text></g><!--MD5=[8413f8248b2da7966d2de021109ec289]
class users--><g id="elem_users"><rect codeLine="7" fill="#F1F1F1" height="131.6563" id="users" rx="2.5" ry="2.5" style="stroke:#181818;stroke-width:0.5;" width="149" x="22.5" y="65.5"/><text fill="#000000" font-family="sans-serif" font-size="14" lengthAdjust="spacing" textLength="36" x="79" y="85.0332">Users</text><line style="stroke:#181818;stroke-width:0.5;" x1="23.5" x2="170.5" y1="93.1094" y2="93.1094"/><ellipse cx="33.5" cy="107.4141" fill="#000000" rx="3" ry="3" style="stroke:#000000;stroke-width:1.0;"/><text fill="#000000" font-family="sans-serif" font-size="14" lengthAdjust="spacing" textLength="83" x="42.5" y="111.6426">_id : ObjectId</text><line style="stroke:#181818;stroke-width:1.0;" x1="23.5" x2="170.5" y1="118.7188" y2="118.7188"/><ellipse cx="33.5" cy="133.0234" fill="#000000" rx="3" ry="3" style="stroke:#000000;stroke-width:1.0;"/><text fill="#000000" font-family="sans-serif" font-size="14" lengthAdjust="spacing" textLength="82" x="42.5" y="137.252">email : String</text><ellipse cx="33.5" cy="150.6328" fill="#000000" rx="3" ry="3" style="stroke:#000000;stroke-width:1.0;"/><text fill="#000000" font-family="sans-serif" font-size="14" lengthAdjust="spacing" textLength="112" x="42.5" y="154.8613">username : String</text><ellipse cx="33.5" cy="168.2422" fill="#000000" rx="3" ry="3" style="stroke:#000000;stroke-width:1.0;"/><text fill="#000000" font-family="sans-serif" font-size="14" lengthAdjust="spacing" textLength="109" x="42.5" y="172.4707">password : String</text><text fill="#000000" font-family="sans-serif" font-size="14" lengthAdjust="spacing" textLength="123" x="42.5" y="190.0801">creationDate : Date</text></g><!--MD5=[6a3d116243bbcd0f40b55e75ccb11684]
class shExDocs--><g id="elem_shExDocs"><rect codeLine="15" fill="#F1F1F1" height="114.0469" id="shExDocs" rx="2.5" ry="2.5" style="stroke:#181818;stroke-width:0.5;" width="149" x="22.5" y="266"/><text fill="#000000" font-family="sans-serif" font-size="14" lengthAdjust="spacing" textLength="64" x="65" y="285.5332">ShExDocs</text><line style="stroke:#181818;stroke-width:0.5;" x1="23.5" x2="170.5" y1="293.6094" y2="293.6094"/><ellipse cx="33.5" cy="307.9141" fill="#000000" rx="3" ry="3" style="stroke:#000000;stroke-width:1.0;"/><text fill="#000000" font-family="sans-serif" font-size="14" lengthAdjust="spacing" textLength="83" x="42.5" y="312.1426">_id : ObjectId</text><line style="stroke:#181818;stroke-width:1.0;" x1="23.5" x2="170.5" y1="319.2188" y2="319.2188"/><ellipse cx="33.5" cy="333.5234" fill="#000000" rx="3" ry="3" style="stroke:#000000;stroke-width:1.0;"/><text fill="#000000" font-family="sans-serif" font-size="14" lengthAdjust="spacing" textLength="71" x="42.5" y="337.752">title : String</text><ellipse cx="33.5" cy="351.1328" fill="#000000" rx="3" ry="3" style="stroke:#000000;stroke-width:1.0;"/><text fill="#000000" font-family="sans-serif" font-size="14" lengthAdjust="spacing" textLength="102" x="42.5" y="355.3613">owners : String[]</text><text fill="#000000" font-family="sans-serif" font-size="14" lengthAdjust="spacing" textLength="123" x="42.5" y="372.9707">creationDate : Date</text></g><!--MD5=[d14a35b62e8ce86a96b62669153a6df8]
class ydoc0001--><g id="elem_ydoc0001"><rect codeLine="24" fill="#F1F1F1" height="149.2656" id="ydoc0001" rx="2.5" ry="2.5" style="stroke:#181818;stroke-width:0.5;" width="134" x="228" y="57"/><text fill="#000000" font-family="sans-serif" font-size="14" lengthAdjust="spacing" textLength="64" x="263" y="76.5332">Ydoc0001</text><line style="stroke:#181818;stroke-width:0.5;" x1="229" x2="361" y1="84.6094" y2="84.6094"/><ellipse cx="239" cy="98.9141" fill="#000000" rx="3" ry="3" style="stroke:#000000;stroke-width:1.0;"/><text fill="#000000" font-family="sans-serif" font-size="14" lengthAdjust="spacing" textLength="83" x="248" y="103.1426">_id : ObjectId</text><line style="stroke:#181818;stroke-width:1.0;" x1="229" x2="361" y1="110.2188" y2="110.2188"/><ellipse cx="239" cy="124.5234" fill="#000000" rx="3" ry="3" style="stroke:#000000;stroke-width:1.0;"/><text fill="#000000" font-family="sans-serif" font-size="14" lengthAdjust="spacing" textLength="95" x="248" y="128.752">version : String</text><text fill="#000000" font-family="sans-serif" font-size="14" lengthAdjust="spacing" textLength="87" x="248" y="146.3613">action : String</text><ellipse cx="239" cy="159.7422" fill="#000000" rx="3" ry="3" style="stroke:#000000;stroke-width:1.0;"/><text fill="#000000" font-family="sans-serif" font-size="14" lengthAdjust="spacing" textLength="108" x="248" y="163.9707">docName : String</text><text fill="#000000" font-family="sans-serif" font-size="14" lengthAdjust="spacing" textLength="88" x="248" y="181.5801">clock : Integer</text><ellipse cx="239" cy="194.9609" fill="#000000" rx="3" ry="3" style="stroke:#000000;stroke-width:1.0;"/><text fill="#000000" font-family="sans-serif" font-size="14" lengthAdjust="spacing" textLength="96" x="248" y="199.1895">value : BinData</text></g><!--MD5=[fa5297aefc42bb93f74f1e5788128dc3]
link users to shExDocs--><g id="link_users_shExDocs"><path codeLine="35" d="M72.17,205.67 C72.17,205.67 72.17,257.76 72.17,257.76 " fill="none" id="users-shExDocs" style="stroke:#181818;stroke-width:1.0;"/><line style="stroke:#181818;stroke-width:1.0;" x1="76.17" x2="68.17" y1="261.76" y2="261.76"/><line style="stroke:#181818;stroke-width:1.0;" x1="76.17" x2="68.17" y1="258.76" y2="258.76"/><line style="stroke:#181818;stroke-width:1.0;" x1="72.17" x2="72.17" y1="257.76" y2="265.76"/><line style="stroke:#181818;stroke-width:1.0;" x1="72.17" x2="66.17" y1="205.67" y2="197.67"/><line style="stroke:#181818;stroke-width:1.0;" x1="72.17" x2="78.17" y1="205.67" y2="197.67"/><line style="stroke:#181818;stroke-width:1.0;" x1="72.17" x2="72.17" y1="205.67" y2="197.67"/><ellipse cx="72.17" cy="211.67" fill="none" rx="4" ry="4" style="stroke:#181818;stroke-width:1.0;"/><text fill="#000000" font-family="sans-serif" font-size="13" lengthAdjust="spacing" textLength="41" x="30.17" y="228.2151">owners</text></g><!--MD5=[5264633565d098b99721b6d4a92d3328]
link ydoc0001 to shExDocs--><g id="link_ydoc0001_shExDocs"><path codeLine="36" d="M220.55,202 C220.55,202 121.83,202 121.83,202 C121.83,202 121.83,258.69 121.83,258.69 " fill="none" id="ydoc0001-shExDocs" style="stroke:#181818;stroke-width:1.0;"/><line style="stroke:#181818;stroke-width:1.0;" x1="125.83" x2="117.83" y1="261.69" y2="261.69"/><line style="stroke:#181818;stroke-width:1.0;" x1="125.83" x2="117.83" y1="258.69" y2="258.69"/><line style="stroke:#181818;stroke-width:1.0;" x1="121.83" x2="121.83" y1="257.69" y2="265.69"/><line style="stroke:#181818;stroke-width:1.0;" x1="223.55" x2="223.55" y1="198" y2="206"/><line style="stroke:#181818;stroke-width:1.0;" x1="220.55" x2="220.55" y1="198" y2="206"/><line style="stroke:#181818;stroke-width:1.0;" x1="219.55" x2="227.55" y1="202" y2="202"/><text fill="#000000" font-family="sans-serif" font-size="13" lengthAdjust="spacing" textLength="55" x="140.6" y="216.4951">docName</text><text fill="#000000" font-family="sans-serif" font-size="13" lengthAdjust="spacing" textLength="95" x="122.6" y="232.8467">= ShExDocs._id</text><text fill="#000000" font-family="sans-serif" font-size="13" lengthAdjust="spacing" textLength="74" x="133.1" y="249.1982">= 'Ydoc0001'</text></g><!--MD5=[1047988bea28bbc11b87493a35dd3fd0]
@startuml ShareYASHE - Data model
' hide the spot
hide circle
' avoid problems with angled crows feet
skinparam linetype ortho

database "Entities" as local {
    entity "Users" as users {
        * _id : ObjectId
        - -
        *email : String
        *username : String
        *password : String
        creationDate : Date
    }
    entity "ShExDocs" as shExDocs {
        * _id : ObjectId
        - -
        *title : String
        *owners : String[]
        creationDate : Date
    }
}
database "Ydocs" as test {
    entity "Ydoc0001" as ydoc0001 {
        * _id : ObjectId
        - -
        *version : String
        action : String
        *docName : String
        clock : Integer
        *value : BinData
    }
}

shExDocs ||-up-o{ users : "owners"
shExDocs ||-up-|| ydoc0001 : "docName\n = ShExDocs._id\n = 'Ydoc0001'"

@enduml

@startuml ShareYASHE - Data model
hide circle
skinparam linetype ortho

database "Entities" as local {
    entity "Users" as users {
        * _id : ObjectId
        - -
        *email : String
        *username : String
        *password : String
        creationDate : Date
    }
    entity "ShExDocs" as shExDocs {
        * _id : ObjectId
        - -
        *title : String
        *owners : String[]
        creationDate : Date
    }
}
database "Ydocs" as test {
    entity "Ydoc0001" as ydoc0001 {
        * _id : ObjectId
        - -
        *version : String
        action : String
        *docName : String
        clock : Integer
        *value : BinData
    }
}

shExDocs ||-up-o{ users : "owners"
shExDocs ||-up-|| ydoc0001 : "docName\n = ShExDocs._id\n = 'Ydoc0001'"

@enduml

PlantUML version 1.2022.7(Mon Aug 22 19:01:30 CEST 2022)
(GPL source distribution)
Java Runtime: OpenJDK Runtime Environment
JVM: OpenJDK 64-Bit Server VM
Default Encoding: Cp1252
Language: es
Country: ES
--></g></svg>