<?xml version="1.0" encoding="UTF-8" standalone="no"?><svg xmlns="http://www.w3.org/2000/svg" xmlns:xlink="http://www.w3.org/1999/xlink" contentStyleType="text/css" height="695px" preserveAspectRatio="none" style="width:555px;height:695px;background:#FFFFFF;" version="1.1" viewBox="0 0 555 695" width="555px" zoomAndPan="magnify"><defs/><g><!--MD5=[aee47e4adc368b23a2c75b05fcb7ca1e]
cluster routes--><g id="cluster_routes"><path d="M8.5,6 L59.5,6 A3.75,3.75 0 0 1 62,8.5 L69,29.6094 L545.5,29.6094 A2.5,2.5 0 0 1 548,32.1094 L548,279.5 A2.5,2.5 0 0 1 545.5,282 L8.5,282 A2.5,2.5 0 0 1 6,279.5 L6,8.5 A2.5,2.5 0 0 1 8.5,6 " fill="none" style="stroke:#000000;stroke-width:1.5;"/><line style="stroke:#000000;stroke-width:1.5;" x1="6" x2="69" y1="29.6094" y2="29.6094"/><text fill="#000000" font-family="sans-serif" font-size="14" font-weight="bold" lengthAdjust="spacing" textLength="50" x="10" y="22.5332">Routes</text></g><!--MD5=[c08bc4d12a8be146076d332f1d2459e6]
cluster appLayer--><g id="cluster_appLayer"><path d="M201.5,306 L318.5,306 A3.75,3.75 0 0 1 321,308.5 L328,329.6094 L524.5,329.6094 A2.5,2.5 0 0 1 527,332.1094 L527,685.5 A2.5,2.5 0 0 1 524.5,688 L201.5,688 A2.5,2.5 0 0 1 199,685.5 L199,308.5 A2.5,2.5 0 0 1 201.5,306 " fill="none" style="stroke:#000000;stroke-width:1.5;"/><line style="stroke:#000000;stroke-width:1.5;" x1="199" x2="328" y1="329.6094" y2="329.6094"/><text fill="#000000" font-family="sans-serif" font-size="14" font-weight="bold" lengthAdjust="spacing" textLength="116" x="203" y="322.5332">Application layer</text></g><!--MD5=[647da9b3bf6a783af7ccdca93b90ed9d]
class index--><g id="elem_index"><rect codeLine="3" fill="#F1F1F1" height="65.6094" id="index" rx="2.5" ry="2.5" style="stroke:#181818;stroke-width:0.5;" width="65" x="466.5" y="121"/><ellipse cx="481.5" cy="137" fill="#ADD1B2" rx="11" ry="11" style="stroke:#181818;stroke-width:1.0;"/><path d="M484.2656,132.875 Q484.4219,132.6563 484.6094,132.5469 Q484.7969,132.4375 485.0156,132.4375 Q485.3906,132.4375 485.625,132.7031 Q485.8594,132.9531 485.8594,133.5625 L485.8594,135.0156 Q485.8594,135.625 485.625,135.8906 Q485.3906,136.1563 485.0156,136.1563 Q484.6719,136.1563 484.4688,135.9531 Q484.2656,135.7656 484.1563,135.25 Q484.1094,134.8906 483.9219,134.7031 Q483.5938,134.3281 482.9844,134.1094 Q482.375,133.8906 481.75,133.8906 Q480.9844,133.8906 480.3438,134.2188 Q479.7188,134.5469 479.2188,135.2969 Q478.7344,136.0469 478.7344,137.0781 L478.7344,138.1719 Q478.7344,139.4063 479.625,140.2344 Q480.5156,141.0469 482.1094,141.0469 Q483.0469,141.0469 483.7031,140.7969 Q484.0938,140.6406 484.5156,140.2031 Q484.7813,139.9375 484.9219,139.8594 Q485.0781,139.7813 485.2813,139.7813 Q485.6094,139.7813 485.8594,140.0469 Q486.125,140.2969 486.125,140.6406 Q486.125,140.9844 485.7813,141.3906 Q485.2813,141.9688 484.4844,142.2969 Q483.4063,142.75 482.1094,142.75 Q480.5938,142.75 479.3906,142.125 Q478.4063,141.625 477.7188,140.5625 Q477.0313,139.4844 477.0313,138.2031 L477.0313,137.0469 Q477.0313,135.7188 477.6406,134.5781 Q478.2656,133.4219 479.3594,132.8125 Q480.4531,132.1875 481.6875,132.1875 Q482.4219,132.1875 483.0625,132.3594 Q483.7188,132.5156 484.2656,132.875 Z " fill="#000000"/><text fill="#000000" font-family="sans-serif" font-size="14" lengthAdjust="spacing" textLength="33" x="495.5" y="142.7285">Index</text><line style="stroke:#181818;stroke-width:0.5;" x1="467.5" x2="530.5" y1="153" y2="153"/><line style="stroke:#181818;stroke-width:1.0;" x1="467.5" x2="530.5" y1="161" y2="161"/><ellipse cx="477.5" cy="175.3047" fill="none" rx="3" ry="3" style="stroke:#038048;stroke-width:1.0;"/><text fill="#000000" font-family="sans-serif" font-size="14" lengthAdjust="spacing" textLength="37" x="486.5" y="179.5332">GET /</text></g><!--MD5=[61927db77baf77807ecdfb91256632f0]
class auth--><g id="elem_auth"><rect codeLine="7" fill="#F1F1F1" height="224.0938" id="auth" rx="2.5" ry="2.5" style="stroke:#181818;stroke-width:0.5;" width="136" x="295" y="42"/><ellipse cx="344.25" cy="58" fill="#ADD1B2" rx="11" ry="11" style="stroke:#181818;stroke-width:1.0;"/><path d="M347.0156,53.875 Q347.1719,53.6563 347.3594,53.5469 Q347.5469,53.4375 347.7656,53.4375 Q348.1406,53.4375 348.375,53.7031 Q348.6094,53.9531 348.6094,54.5625 L348.6094,56.0156 Q348.6094,56.625 348.375,56.8906 Q348.1406,57.1563 347.7656,57.1563 Q347.4219,57.1563 347.2188,56.9531 Q347.0156,56.7656 346.9063,56.25 Q346.8594,55.8906 346.6719,55.7031 Q346.3438,55.3281 345.7344,55.1094 Q345.125,54.8906 344.5,54.8906 Q343.7344,54.8906 343.0938,55.2188 Q342.4688,55.5469 341.9688,56.2969 Q341.4844,57.0469 341.4844,58.0781 L341.4844,59.1719 Q341.4844,60.4063 342.375,61.2344 Q343.2656,62.0469 344.8594,62.0469 Q345.7969,62.0469 346.4531,61.7969 Q346.8438,61.6406 347.2656,61.2031 Q347.5313,60.9375 347.6719,60.8594 Q347.8281,60.7813 348.0313,60.7813 Q348.3594,60.7813 348.6094,61.0469 Q348.875,61.2969 348.875,61.6406 Q348.875,61.9844 348.5313,62.3906 Q348.0313,62.9688 347.2344,63.2969 Q346.1563,63.75 344.8594,63.75 Q343.3438,63.75 342.1406,63.125 Q341.1563,62.625 340.4688,61.5625 Q339.7813,60.4844 339.7813,59.2031 L339.7813,58.0469 Q339.7813,56.7188 340.3906,55.5781 Q341.0156,54.4219 342.1094,53.8125 Q343.2031,53.1875 344.4375,53.1875 Q345.1719,53.1875 345.8125,53.3594 Q346.4688,53.5156 347.0156,53.875 Z " fill="#000000"/><text fill="#000000" font-family="sans-serif" font-size="14" lengthAdjust="spacing" textLength="29" x="364.75" y="63.7285">Auth</text><line style="stroke:#181818;stroke-width:0.5;" x1="296" x2="430" y1="74" y2="74"/><line style="stroke:#181818;stroke-width:1.0;" x1="296" x2="430" y1="82" y2="82"/><ellipse cx="306" cy="96.3047" fill="none" rx="3" ry="3" style="stroke:#038048;stroke-width:1.0;"/><text fill="#000000" font-family="sans-serif" font-size="14" lengthAdjust="spacing" textLength="85" x="315" y="100.5332">GET /register</text><ellipse cx="306" cy="113.9141" fill="none" rx="3" ry="3" style="stroke:#038048;stroke-width:1.0;"/><text fill="#000000" font-family="sans-serif" font-size="14" lengthAdjust="spacing" textLength="94" x="315" y="118.1426">POST /register</text><text fill="#000000" font-family="sans-serif" font-size="14" lengthAdjust="spacing" textLength="4" x="315" y="135.752"> </text><ellipse cx="306" cy="149.1328" fill="none" rx="3" ry="3" style="stroke:#038048;stroke-width:1.0;"/><text fill="#000000" font-family="sans-serif" font-size="14" lengthAdjust="spacing" textLength="101" x="315" y="153.3613">GET /unregister</text><ellipse cx="306" cy="166.7422" fill="none" rx="3" ry="3" style="stroke:#038048;stroke-width:1.0;"/><text fill="#000000" font-family="sans-serif" font-size="14" lengthAdjust="spacing" textLength="110" x="315" y="170.9707">POST /unregister</text><text fill="#000000" font-family="sans-serif" font-size="14" lengthAdjust="spacing" textLength="4" x="315" y="188.5801"> </text><ellipse cx="306" cy="201.9609" fill="none" rx="3" ry="3" style="stroke:#038048;stroke-width:1.0;"/><text fill="#000000" font-family="sans-serif" font-size="14" lengthAdjust="spacing" textLength="67" x="315" y="206.1895">GET /login</text><ellipse cx="306" cy="219.5703" fill="none" rx="3" ry="3" style="stroke:#038048;stroke-width:1.0;"/><text fill="#000000" font-family="sans-serif" font-size="14" lengthAdjust="spacing" textLength="76" x="315" y="223.7988">POST /login</text><text fill="#000000" font-family="sans-serif" font-size="14" lengthAdjust="spacing" textLength="4" x="315" y="241.4082"> </text><ellipse cx="306" cy="254.7891" fill="none" rx="3" ry="3" style="stroke:#038048;stroke-width:1.0;"/><text fill="#000000" font-family="sans-serif" font-size="14" lengthAdjust="spacing" textLength="76" x="315" y="259.0176">GET /logout</text></g><!--MD5=[6a3d116243bbcd0f40b55e75ccb11684]
class shExDocs--><g id="elem_shExDocs"><rect codeLine="20" fill="#F1F1F1" height="171.2656" id="shExDocs" rx="2.5" ry="2.5" style="stroke:#181818;stroke-width:0.5;" width="238" x="22" y="68.5"/><ellipse cx="104.75" cy="84.5" fill="#ADD1B2" rx="11" ry="11" style="stroke:#181818;stroke-width:1.0;"/><path d="M107.5156,80.375 Q107.6719,80.1563 107.8594,80.0469 Q108.0469,79.9375 108.2656,79.9375 Q108.6406,79.9375 108.875,80.2031 Q109.1094,80.4531 109.1094,81.0625 L109.1094,82.5156 Q109.1094,83.125 108.875,83.3906 Q108.6406,83.6563 108.2656,83.6563 Q107.9219,83.6563 107.7188,83.4531 Q107.5156,83.2656 107.4063,82.75 Q107.3594,82.3906 107.1719,82.2031 Q106.8438,81.8281 106.2344,81.6094 Q105.625,81.3906 105,81.3906 Q104.2344,81.3906 103.5938,81.7188 Q102.9688,82.0469 102.4688,82.7969 Q101.9844,83.5469 101.9844,84.5781 L101.9844,85.6719 Q101.9844,86.9063 102.875,87.7344 Q103.7656,88.5469 105.3594,88.5469 Q106.2969,88.5469 106.9531,88.2969 Q107.3438,88.1406 107.7656,87.7031 Q108.0313,87.4375 108.1719,87.3594 Q108.3281,87.2813 108.5313,87.2813 Q108.8594,87.2813 109.1094,87.5469 Q109.375,87.7969 109.375,88.1406 Q109.375,88.4844 109.0313,88.8906 Q108.5313,89.4688 107.7344,89.7969 Q106.6563,90.25 105.3594,90.25 Q103.8438,90.25 102.6406,89.625 Q101.6563,89.125 100.9688,88.0625 Q100.2813,86.9844 100.2813,85.7031 L100.2813,84.5469 Q100.2813,83.2188 100.8906,82.0781 Q101.5156,80.9219 102.6094,80.3125 Q103.7031,79.6875 104.9375,79.6875 Q105.6719,79.6875 106.3125,79.8594 Q106.9688,80.0156 107.5156,80.375 Z " fill="#000000"/><text fill="#000000" font-family="sans-serif" font-size="14" lengthAdjust="spacing" textLength="64" x="125.25" y="90.2285">ShExDocs</text><line style="stroke:#181818;stroke-width:0.5;" x1="23" x2="259" y1="100.5" y2="100.5"/><line style="stroke:#181818;stroke-width:1.0;" x1="23" x2="259" y1="108.5" y2="108.5"/><ellipse cx="33" cy="122.8047" fill="none" rx="3" ry="3" style="stroke:#038048;stroke-width:1.0;"/><text fill="#000000" font-family="sans-serif" font-size="14" lengthAdjust="spacing" textLength="102" x="42" y="127.0332">GET /createDoc</text><ellipse cx="33" cy="140.4141" fill="none" rx="3" ry="3" style="stroke:#038048;stroke-width:1.0;"/><text fill="#000000" font-family="sans-serif" font-size="14" lengthAdjust="spacing" textLength="111" x="42" y="144.6426">POST /createDoc</text><text fill="#000000" font-family="sans-serif" font-size="14" lengthAdjust="spacing" textLength="4" x="42" y="162.252"> </text><ellipse cx="33" cy="175.6328" fill="none" rx="3" ry="3" style="stroke:#038048;stroke-width:1.0;"/><text fill="#000000" font-family="sans-serif" font-size="14" lengthAdjust="spacing" textLength="165" x="42" y="179.8613">GET /shexDoc/:shExDocId</text><text fill="#000000" font-family="sans-serif" font-size="14" lengthAdjust="spacing" textLength="4" x="42" y="197.4707"> </text><ellipse cx="33" cy="210.8516" fill="none" rx="3" ry="3" style="stroke:#038048;stroke-width:1.0;"/><text fill="#000000" font-family="sans-serif" font-size="14" lengthAdjust="spacing" textLength="212" x="42" y="215.0801">GET /leaveOwnership/:shExDocId</text><ellipse cx="33" cy="228.4609" fill="none" rx="3" ry="3" style="stroke:#038048;stroke-width:1.0;"/><text fill="#000000" font-family="sans-serif" font-size="14" lengthAdjust="spacing" textLength="185" x="42" y="232.6895">POST /addOwner/:shExDocId</text></g><!--MD5=[f0f244cf5f0322bd22e81ee8a69418b2]
class appLayerFactory--><g id="elem_appLayerFactory"><rect codeLine="33" fill="#F1F1F1" height="329.75" id="appLayerFactory" rx="2.5" ry="2.5" style="stroke:#181818;stroke-width:0.5;" width="295" x="215.5" y="342"/><ellipse cx="304.25" cy="358" fill="#ADD1B2" rx="11" ry="11" style="stroke:#181818;stroke-width:1.0;"/><path d="M307.0156,353.875 Q307.1719,353.6563 307.3594,353.5469 Q307.5469,353.4375 307.7656,353.4375 Q308.1406,353.4375 308.375,353.7031 Q308.6094,353.9531 308.6094,354.5625 L308.6094,356.0156 Q308.6094,356.625 308.375,356.8906 Q308.1406,357.1563 307.7656,357.1563 Q307.4219,357.1563 307.2188,356.9531 Q307.0156,356.7656 306.9063,356.25 Q306.8594,355.8906 306.6719,355.7031 Q306.3438,355.3281 305.7344,355.1094 Q305.125,354.8906 304.5,354.8906 Q303.7344,354.8906 303.0938,355.2188 Q302.4688,355.5469 301.9688,356.2969 Q301.4844,357.0469 301.4844,358.0781 L301.4844,359.1719 Q301.4844,360.4063 302.375,361.2344 Q303.2656,362.0469 304.8594,362.0469 Q305.7969,362.0469 306.4531,361.7969 Q306.8438,361.6406 307.2656,361.2031 Q307.5313,360.9375 307.6719,360.8594 Q307.8281,360.7813 308.0313,360.7813 Q308.3594,360.7813 308.6094,361.0469 Q308.875,361.2969 308.875,361.6406 Q308.875,361.9844 308.5313,362.3906 Q308.0313,362.9688 307.2344,363.2969 Q306.1563,363.75 304.8594,363.75 Q303.3438,363.75 302.1406,363.125 Q301.1563,362.625 300.4688,361.5625 Q299.7813,360.4844 299.7813,359.2031 L299.7813,358.0469 Q299.7813,356.7188 300.3906,355.5781 Q301.0156,354.4219 302.1094,353.8125 Q303.2031,353.1875 304.4375,353.1875 Q305.1719,353.1875 305.8125,353.3594 Q306.4688,353.5156 307.0156,353.875 Z " fill="#000000"/><text fill="#000000" font-family="sans-serif" font-size="14" lengthAdjust="spacing" textLength="109" x="324.75" y="363.7285">AppLayerFactory</text><line style="stroke:#181818;stroke-width:0.5;" x1="216.5" x2="509.5" y1="374" y2="374"/><rect fill="none" height="6" style="stroke:#C82930;stroke-width:1.0;" width="6" x="223.5" y="385.3047"/><text fill="#000000" font-family="sans-serif" font-size="14" lengthAdjust="spacing" textLength="239" x="235.5" y="392.5332">CommandExecutor commandExecutor</text><line style="stroke:#181818;stroke-width:1.0;" x1="216.5" x2="509.5" y1="399.6094" y2="399.6094"/><ellipse cx="226.5" cy="413.9141" fill="#84BE84" rx="3" ry="3" style="stroke:#038048;stroke-width:1.0;"/><text fill="#000000" font-family="sans-serif" font-size="14" lengthAdjust="spacing" textLength="196" x="235.5" y="418.1426">forGetIndexCommand(req, res)</text><text fill="#000000" font-family="sans-serif" font-size="14" lengthAdjust="spacing" textLength="4" x="235.5" y="435.752"> </text><ellipse cx="226.5" cy="449.1328" fill="#84BE84" rx="3" ry="3" style="stroke:#038048;stroke-width:1.0;"/><text fill="#000000" font-family="sans-serif" font-size="14" lengthAdjust="spacing" textLength="263" x="235.5" y="453.3613">forGetCreateShExDocCommand(req, res)</text><ellipse cx="226.5" cy="466.7422" fill="#84BE84" rx="3" ry="3" style="stroke:#038048;stroke-width:1.0;"/><text fill="#000000" font-family="sans-serif" font-size="14" lengthAdjust="spacing" textLength="268" x="235.5" y="470.9707">forPostCreateShExDocCommand(req, res)</text><ellipse cx="226.5" cy="484.3516" fill="#84BE84" rx="3" ry="3" style="stroke:#038048;stroke-width:1.0;"/><text fill="#000000" font-family="sans-serif" font-size="14" lengthAdjust="spacing" textLength="220" x="235.5" y="488.5801">forGetShExDocCommand(req, res)</text><ellipse cx="226.5" cy="501.9609" fill="#84BE84" rx="3" ry="3" style="stroke:#038048;stroke-width:1.0;"/><text fill="#000000" font-family="sans-serif" font-size="14" lengthAdjust="spacing" textLength="269" x="235.5" y="506.1895">forGetLeaveOwnershipCommand(req, res)</text><ellipse cx="226.5" cy="519.5703" fill="#84BE84" rx="3" ry="3" style="stroke:#038048;stroke-width:1.0;"/><text fill="#000000" font-family="sans-serif" font-size="14" lengthAdjust="spacing" textLength="234" x="235.5" y="523.7988">forPostAddOwnerCommand(req, res)</text><text fill="#000000" font-family="sans-serif" font-size="14" lengthAdjust="spacing" textLength="4" x="235.5" y="541.4082"> </text><ellipse cx="226.5" cy="554.7891" fill="#84BE84" rx="3" ry="3" style="stroke:#038048;stroke-width:1.0;"/><text fill="#000000" font-family="sans-serif" font-size="14" lengthAdjust="spacing" textLength="216" x="235.5" y="559.0176">forGetRegisterCommand(req, res)</text><ellipse cx="226.5" cy="572.3984" fill="#84BE84" rx="3" ry="3" style="stroke:#038048;stroke-width:1.0;"/><text fill="#000000" font-family="sans-serif" font-size="14" lengthAdjust="spacing" textLength="221" x="235.5" y="576.627">forPostRegisterCommand(req, res)</text><ellipse cx="226.5" cy="590.0078" fill="#84BE84" rx="3" ry="3" style="stroke:#038048;stroke-width:1.0;"/><text fill="#000000" font-family="sans-serif" font-size="14" lengthAdjust="spacing" textLength="228" x="235.5" y="594.2363">forGetUnregisterCommand(req, res)</text><ellipse cx="226.5" cy="607.6172" fill="#84BE84" rx="3" ry="3" style="stroke:#038048;stroke-width:1.0;"/><text fill="#000000" font-family="sans-serif" font-size="14" lengthAdjust="spacing" textLength="233" x="235.5" y="611.8457">forPostUnregisterCommand(req, res)</text><ellipse cx="226.5" cy="625.2266" fill="#84BE84" rx="3" ry="3" style="stroke:#038048;stroke-width:1.0;"/><text fill="#000000" font-family="sans-serif" font-size="14" lengthAdjust="spacing" textLength="198" x="235.5" y="629.4551">forGetLoginCommand(req, res)</text><ellipse cx="226.5" cy="642.8359" fill="#84BE84" rx="3" ry="3" style="stroke:#038048;stroke-width:1.0;"/><text fill="#000000" font-family="sans-serif" font-size="14" lengthAdjust="spacing" textLength="203" x="235.5" y="647.0645">forPostLoginCommand(req, res)</text><ellipse cx="226.5" cy="660.4453" fill="#84BE84" rx="3" ry="3" style="stroke:#038048;stroke-width:1.0;"/><text fill="#000000" font-family="sans-serif" font-size="14" lengthAdjust="spacing" textLength="207" x="235.5" y="664.6738">forGetLogoutCommand(req, res)</text></g><!--MD5=[cc83e1f5f695157780274d292ec4d4a8]
link index to appLayerFactory--><g id="link_index_appLayerFactory"><path codeLine="54" d="M487.3,187.27 C477.3,214.67 462.45,255 449,290 C443.13,305.28 436.96,321.14 430.74,337.01 " fill="none" id="index-to-appLayerFactory" style="stroke:#181818;stroke-width:1.0;"/><polygon fill="#181818" points="428.8,341.94,435.8126,335.0245,430.6274,337.2859,428.366,332.1007,428.8,341.94" style="stroke:#181818;stroke-width:1.0;"/></g><!--MD5=[79836176615465488418c961348aaf1b]
link auth to appLayerFactory--><g id="link_auth_appLayerFactory"><path codeLine="55" d="M363,266.06 C363,288.56 363,312.7 363,336.69 " fill="none" id="auth-to-appLayerFactory" style="stroke:#181818;stroke-width:1.0;"/><polygon fill="#181818" points="363,341.8,367,332.8,363,336.8,359,332.8,363,341.8" style="stroke:#181818;stroke-width:1.0;"/></g><!--MD5=[2b5d4853a7b8f3b0a0f160c8da7e5113]
link shExDocs to appLayerFactory--><g id="link_shExDocs_appLayerFactory"><path codeLine="56" d="M194.46,239.52 C213.12,269.03 234.78,303.28 256.24,337.2 " fill="none" id="shExDocs-to-appLayerFactory" style="stroke:#181818;stroke-width:1.0;"/><polygon fill="#181818" points="259.12,341.76,257.6948,332.0148,256.4495,337.5329,250.9314,336.2876,259.12,341.76" style="stroke:#181818;stroke-width:1.0;"/></g><!--MD5=[f14d93ef343374022a2f77ddf4391679]
@startuml ShareYASHE - Classes structure - Routes layer

package "Routes" as routes {
    class "Index" as index {
        - -
        +GET /
    }
    class "Auth" as auth {
        - -
        +GET /register
        +POST /register

        +GET /unregister
        +POST /unregister

        +GET /login
        +POST /login

        +GET /logout
    }
    class "ShExDocs" as shExDocs {
        - -
        +GET /createDoc
        +POST /createDoc

        +GET /shexDoc/:shExDocId

        +GET /leaveOwnership/:shExDocId
        +POST /addOwner/:shExDocId
    }
}

package "Application layer" as appLayer {
    class "AppLayerFactory" as appLayerFactory {
        -CommandExecutor commandExecutor
        - -
        +forGetIndexCommand(req, res)

        +forGetCreateShExDocCommand(req, res)
        +forPostCreateShExDocCommand(req, res)
        +forGetShExDocCommand(req, res)
        +forGetLeaveOwnershipCommand(req, res)
        +forPostAddOwnerCommand(req, res)

        +forGetRegisterCommand(req, res)
        +forPostRegisterCommand(req, res)
        +forGetUnregisterCommand(req, res)
        +forPostUnregisterCommand(req, res)
        +forGetLoginCommand(req, res)
        +forPostLoginCommand(req, res)
        +forGetLogoutCommand(req, res)
    }
}

index - -> appLayerFactory
auth - -> appLayerFactory
shExDocs - -> appLayerFactory

@enduml

PlantUML version 1.2022.7(Mon Aug 22 19:01:30 CEST 2022)
(GPL source distribution)
Java Runtime: OpenJDK Runtime Environment
JVM: OpenJDK 64-Bit Server VM
Default Encoding: Cp1252
Language: es
Country: ES
--></g></svg>