<?xml version="1.0" encoding="UTF-8" standalone="no"?><svg xmlns="http://www.w3.org/2000/svg" xmlns:xlink="http://www.w3.org/1999/xlink" contentStyleType="text/css" height="691px" preserveAspectRatio="none" style="width:527px;height:691px;background:#FFFFFF;" version="1.1" viewBox="0 0 527 691" width="527px" zoomAndPan="magnify"><defs/><g><rect fill="none" height="139.7578" style="stroke:#000000;stroke-width:1.5;" width="511" x="10" y="452.1797"/><line style="stroke:#181818;stroke-width:0.5;stroke-dasharray:5.0,5.0;" x1="37" x2="37" y1="82.6094" y2="608.9375"/><line style="stroke:#181818;stroke-width:0.5;stroke-dasharray:5.0,5.0;" x1="242" x2="242" y1="82.6094" y2="608.9375"/><line style="stroke:#181818;stroke-width:0.5;stroke-dasharray:5.0,5.0;" x1="462" x2="462" y1="82.6094" y2="608.9375"/><text fill="#000000" font-family="sans-serif" font-size="14" lengthAdjust="spacing" textLength="29" x="20" y="79.5332">User</text><ellipse cx="37.5" cy="13.5" fill="#E2E2F0" rx="8" ry="8" style="stroke:#181818;stroke-width:0.5;"/><path d="M37.5,21.5 L37.5,48.5 M24.5,29.5 L50.5,29.5 M37.5,48.5 L24.5,63.5 M37.5,48.5 L50.5,63.5 " fill="none" style="stroke:#181818;stroke-width:0.5;"/><text fill="#000000" font-family="sans-serif" font-size="14" lengthAdjust="spacing" textLength="29" x="20" y="622.4707">User</text><ellipse cx="37.5" cy="634.0469" fill="#E2E2F0" rx="8" ry="8" style="stroke:#181818;stroke-width:0.5;"/><path d="M37.5,642.0469 L37.5,669.0469 M24.5,650.0469 L50.5,650.0469 M37.5,669.0469 L24.5,684.0469 M37.5,669.0469 L50.5,684.0469 " fill="none" style="stroke:#181818;stroke-width:0.5;"/><rect fill="#E2E2F0" height="49.2188" rx="2.5" ry="2.5" style="stroke:#181818;stroke-width:0.5;" width="97" x="194" y="32.3906"/><text fill="#000000" font-family="sans-serif" font-size="14" lengthAdjust="spacing" textLength="83" x="201" y="53.9238">ShareYASHE</text><text fill="#000000" font-family="sans-serif" font-size="14" lengthAdjust="spacing" textLength="36" x="224.5" y="71.5332">Client</text><rect fill="#E2E2F0" height="49.2188" rx="2.5" ry="2.5" style="stroke:#181818;stroke-width:0.5;" width="97" x="194" y="607.9375"/><text fill="#000000" font-family="sans-serif" font-size="14" lengthAdjust="spacing" textLength="83" x="201" y="629.4707">ShareYASHE</text><text fill="#000000" font-family="sans-serif" font-size="14" lengthAdjust="spacing" textLength="36" x="224.5" y="647.0801">Client</text><rect fill="#E2E2F0" height="49.2188" rx="2.5" ry="2.5" style="stroke:#181818;stroke-width:0.5;" width="97" x="414" y="32.3906"/><text fill="#000000" font-family="sans-serif" font-size="14" lengthAdjust="spacing" textLength="83" x="421" y="53.9238">ShareYASHE</text><text fill="#000000" font-family="sans-serif" font-size="14" lengthAdjust="spacing" textLength="42" x="441.5" y="71.5332">Server</text><rect fill="#E2E2F0" height="49.2188" rx="2.5" ry="2.5" style="stroke:#181818;stroke-width:0.5;" width="97" x="414" y="607.9375"/><text fill="#000000" font-family="sans-serif" font-size="14" lengthAdjust="spacing" textLength="83" x="421" y="629.4707">ShareYASHE</text><text fill="#000000" font-family="sans-serif" font-size="14" lengthAdjust="spacing" textLength="42" x="441.5" y="647.0801">Server</text><polygon fill="#181818" points="450.5,110.9609,460.5,114.9609,450.5,118.9609,454.5,114.9609" style="stroke:#181818;stroke-width:1.0;"/><line style="stroke:#181818;stroke-width:1.0;" x1="37.5" x2="456.5" y1="114.9609" y2="114.9609"/><text fill="#000000" font-family="sans-serif" font-size="13" lengthAdjust="spacing" textLength="44" x="44.5" y="110.1045">GET "/"</text><polygon fill="#181818" points="48.5,141.3125,38.5,145.3125,48.5,149.3125,44.5,145.3125" style="stroke:#181818;stroke-width:1.0;"/><line style="stroke:#181818;stroke-width:1.0;" x1="42.5" x2="461.5" y1="145.3125" y2="145.3125"/><text fill="#000000" font-family="sans-serif" font-size="13" lengthAdjust="spacing" textLength="149" x="54.5" y="140.4561">HTTP Index rendered view</text><polygon fill="#181818" points="450.5,171.6641,460.5,175.6641,450.5,179.6641,454.5,175.6641" style="stroke:#181818;stroke-width:1.0;"/><line style="stroke:#181818;stroke-width:1.0;" x1="37.5" x2="456.5" y1="175.6641" y2="175.6641"/><text fill="#000000" font-family="sans-serif" font-size="13" lengthAdjust="spacing" textLength="71" x="44.5" y="170.8076">GET "/login"</text><polygon fill="#181818" points="48.5,202.0156,38.5,206.0156,48.5,210.0156,44.5,206.0156" style="stroke:#181818;stroke-width:1.0;"/><line style="stroke:#181818;stroke-width:1.0;" x1="42.5" x2="461.5" y1="206.0156" y2="206.0156"/><text fill="#000000" font-family="sans-serif" font-size="13" lengthAdjust="spacing" textLength="149" x="54.5" y="201.1592">HTTP Login rendered view</text><polygon fill="#181818" points="450.5,232.3672,460.5,236.3672,450.5,240.3672,454.5,236.3672" style="stroke:#181818;stroke-width:1.0;"/><line style="stroke:#181818;stroke-width:1.0;" x1="37.5" x2="456.5" y1="236.3672" y2="236.3672"/><text fill="#000000" font-family="sans-serif" font-size="13" lengthAdjust="spacing" textLength="80" x="44.5" y="231.5107">POST "/login"</text><polygon fill="#181818" points="48.5,295.4219,38.5,299.4219,48.5,303.4219,44.5,299.4219" style="stroke:#181818;stroke-width:1.0;"/><line style="stroke:#181818;stroke-width:1.0;" x1="42.5" x2="461.5" y1="299.4219" y2="299.4219"/><text fill="#000000" font-family="sans-serif" font-size="13" lengthAdjust="spacing" textLength="115" x="54.5" y="261.8623">Redirection to Index</text><text fill="#000000" font-family="sans-serif" font-size="13" lengthAdjust="spacing" textLength="113" x="54.5" y="278.2139">Index rendered view</text><text fill="#000000" font-family="sans-serif" font-size="13" lengthAdjust="spacing" textLength="127" x="54.5" y="294.5654">(Credentials validated)</text><polygon fill="#181818" points="450.5,325.7734,460.5,329.7734,450.5,333.7734,454.5,329.7734" style="stroke:#181818;stroke-width:1.0;"/><line style="stroke:#181818;stroke-width:1.0;" x1="37.5" x2="456.5" y1="329.7734" y2="329.7734"/><text fill="#000000" font-family="sans-serif" font-size="13" lengthAdjust="spacing" textLength="168" x="44.5" y="324.917">GET "/shExDoc/:shExDocId"</text><polygon fill="#181818" points="253.5,372.4766,243.5,376.4766,253.5,380.4766,249.5,376.4766" style="stroke:#181818;stroke-width:1.0;"/><line style="stroke:#181818;stroke-width:1.0;" x1="247.5" x2="461.5" y1="376.4766" y2="376.4766"/><text fill="#000000" font-family="sans-serif" font-size="13" lengthAdjust="spacing" textLength="156" x="259.5" y="355.2686">Create ShareYASHE client</text><text fill="#000000" font-family="sans-serif" font-size="13" lengthAdjust="spacing" textLength="132" x="259.5" y="371.6201">(Client-side JavaScript)</text><polygon fill="#181818" points="48.5,402.8281,38.5,406.8281,48.5,410.8281,44.5,406.8281" style="stroke:#181818;stroke-width:1.0;"/><line style="stroke:#181818;stroke-width:1.0;" x1="42.5" x2="461.5" y1="406.8281" y2="406.8281"/><text fill="#000000" font-family="sans-serif" font-size="13" lengthAdjust="spacing" textLength="235" x="54.5" y="401.9717">Provide ShareYASHE client source code</text><polygon fill="#181818" points="48.5,433.1797,38.5,437.1797,48.5,441.1797,44.5,437.1797" style="stroke:#181818;stroke-width:1.0;"/><line style="stroke:#181818;stroke-width:1.0;" x1="42.5" x2="461.5" y1="437.1797" y2="437.1797"/><text fill="#000000" font-family="sans-serif" font-size="13" lengthAdjust="spacing" textLength="175" x="54.5" y="432.3232">HTTP ShEx doc rendered view</text><path d="M10,452.1797 L207,452.1797 L207,460.5313 L197,470.5313 L10,470.5313 L10,452.1797 " fill="#EEEEEE" style="stroke:#000000;stroke-width:1.5;"/><rect fill="none" height="139.7578" style="stroke:#000000;stroke-width:1.5;" width="511" x="10" y="452.1797"/><text fill="#000000" font-family="sans-serif" font-size="13" font-weight="bold" lengthAdjust="spacing" textLength="148" x="25" y="466.6748">WebSocket Connection</text><text fill="#000000" font-family="sans-serif" font-size="11" font-weight="bold" lengthAdjust="spacing" textLength="171" x="222" y="465.5986">[until the user leaves the view]</text><polygon fill="#181818" points="450.5,488.8828,460.5,492.8828,450.5,496.8828,454.5,492.8828" style="stroke:#181818;stroke-width:1.0;"/><line style="stroke:#181818;stroke-width:1.0;" x1="242.5" x2="456.5" y1="492.8828" y2="492.8828"/><text fill="#000000" font-family="sans-serif" font-size="13" lengthAdjust="spacing" textLength="193" x="249.5" y="488.0264">Establish WebSocket connection</text><polygon fill="#181818" points="450.5,519.2344,460.5,523.2344,450.5,527.2344,454.5,523.2344" style="stroke:#181818;stroke-width:1.0;"/><line style="stroke:#181818;stroke-width:1.0;" x1="242.5" x2="456.5" y1="523.2344" y2="523.2344"/><text fill="#000000" font-family="sans-serif" font-size="13" lengthAdjust="spacing" textLength="168" x="249.5" y="518.3779">Subscribe to the Ydoc object</text><polygon fill="#181818" points="230.5,549.5859,240.5,553.5859,230.5,557.5859,234.5,553.5859" style="stroke:#181818;stroke-width:1.0;"/><line style="stroke:#181818;stroke-width:1.0;" x1="37.5" x2="236.5" y1="553.5859" y2="553.5859"/><text fill="#000000" font-family="sans-serif" font-size="13" lengthAdjust="spacing" textLength="181" x="44.5" y="548.7295">Edit content of ShEx document</text><polygon fill="#181818" points="450.5,579.9375,460.5,583.9375,450.5,587.9375,454.5,583.9375" style="stroke:#181818;stroke-width:1.0;"/><line style="stroke:#181818;stroke-width:1.0;" x1="242.5" x2="456.5" y1="583.9375" y2="583.9375"/><text fill="#000000" font-family="sans-serif" font-size="13" lengthAdjust="spacing" textLength="196" x="249.5" y="579.0811">Publish update to the Ydoc object</text><!--MD5=[1f7bf5c6fcd045dc5a9df632af431562]
@startuml ShareYASHE - Deployment structure - ShareYASHE client
actor "User" as user
participant "ShareYASHE\nClient" as client
participant "ShareYASHE\nServer" as server

user -> server: GET "/"
server -> user: HTTP Index rendered view

user -> server: GET "/login"
server -> user: HTTP Login rendered view

user -> server: POST "/login"
server -> user: Redirection to Index\nIndex rendered view\n(Credentials validated)

user -> server: GET "/shExDoc/:shExDocId"
server -> client: Create ShareYASHE client\n(Client-side JavaScript)
server -> user: Provide ShareYASHE client source code
server -> user: HTTP ShEx doc rendered view
group WebSocket Connection [until the user leaves the view]
    client -> server: Establish WebSocket connection
    client -> server: Subscribe to the Ydoc object

    user -> client: Edit content of ShEx document
    client -> server: Publish update to the Ydoc object
end
@enduml

PlantUML version 1.2022.7(Mon Aug 22 19:01:30 CEST 2022)
(GPL source distribution)
Java Runtime: OpenJDK Runtime Environment
JVM: OpenJDK 64-Bit Server VM
Default Encoding: Cp1252
Language: es
Country: ES
--></g></svg>