<?xml version="1.0" encoding="UTF-8" standalone="no"?><svg xmlns="http://www.w3.org/2000/svg" xmlns:xlink="http://www.w3.org/1999/xlink" contentStyleType="text/css" height="252px" preserveAspectRatio="none" style="width:510px;height:252px;background:#FFFFFF;" version="1.1" viewBox="0 0 510 252" width="510px" zoomAndPan="magnify"><defs/><g><g id="cluster_##3"><path d="M180.6636,23.9385 C184.3829,13.3056 194.4295,11.6972 201.2124,20.7387 C208.0961,10.56 217.9396,12.6535 223.6672,22.064 C229.6042,11.2461 240.5584,11.8353 245.8575,22.7164 C250.242,11.0288 256.9994,9.3666 265.6271,18.7318 C273.2289,6.0628 280.9755,6 288.8346,18.4946 C293.3526,8.743 302.4398,9.5734 307.3585,18.0883 C314.158,8.275 326.1706,7.6285 331.2333,19.9608 C338.255,11.8279 344.9447,11.8782 351.3398,20.7038 C358.338,8.628 366.6263,9.5264 374.1214,20.2063 C381.3468,13.0647 387.4251,11.4421 392.9084,22.0501 C399.4084,9.9544 407.166,10.4969 416.1262,19.3196 C425.0429,10.6292 432.9223,10.036 439.1872,22.2455 C445.834,15.22 453.2369,13.2989 458.0096,24.2119 C467.9289,13.7211 478.9199,13.1791 485,28.2636 C485.4821,28.0788 485.8455,28.1721 485.8511,28.7771 C501.8148,37.7259 499.2394,47.7357 486.8015,57.6203 C498.6093,63.3277 499.1924,73.7518 489.8196,82.0733 C501.4243,89.778 502.3286,98.9815 492.2526,108.6695 C500.527,116.4916 500.0473,125.824 488.7622,130.522 C503.9991,139.2588 500.8369,151.6151 487.4736,159.0604 C496.6159,173.2637 496.2347,182.9415 478,188.2636 C479.965,188.6313 480.0648,189.8905 479.013,191.2735 C472.5594,201.9998 464.2103,202.1939 457.8693,191.164 C453.1607,200.562 443.3701,201.2459 437.7128,192.2009 C431.9172,204.6755 424.4465,208.0488 414.0205,196.8313 C409.4223,204.6965 400.7136,207.0935 395.7535,197.2036 C388.0664,207.5846 381.3022,204.8087 374.7779,195.9367 C369.7211,205.7838 360.4113,208.0002 352.8644,198.8018 C347.4447,210.1909 337.8999,210.0565 330.704,200.6991 C323.539,209.5934 314.3561,209.2114 309.654,198.1068 C303.6352,207.5513 293.0286,209.9617 286.6277,198.5281 C280.056,208.1073 269.9837,208.4221 265.0411,196.8643 C257.4032,206.9795 249.1934,204.418 243.5546,194.6988 C238.1287,202.1449 229.4407,201.1186 225.7389,192.7559 C220.068,204.6425 209.208,202.0435 203.723,192.5642 C187.8701,202.5858 178.2007,198.3376 172,181.2636 C174.4831,181.1215 175.1906,182.8399 174.15,184.8251 C162.3412,176.0016 163.3617,168.1053 174.5257,159.6243 C160.6089,150.9296 161.1938,142.1358 172.5658,131.6682 C160.3155,127.016 156.0508,116.4863 168.1699,107.4168 C157.3104,97.3259 158.2378,86.8561 171.872,80.0824 C159.235,70.7269 161.8903,62.3783 172.7256,53.7847 C156.5062,42.102 163.6465,26.8548 179,21.2636 C180.6037,21.2217 181.6518,22.3683 180.6636,23.9385 " fill="none" style="stroke:#181818;stroke-width:1.0;"/></g><!--MD5=[d2c38569b2d760d62cad8a4d5ea164da]
entity httpServer--><g id="elem_httpServer"><rect fill="#F1F1F1" height="58.2188" rx="2.5" ry="2.5" style="stroke:#181818;stroke-width:0.5;" width="113" x="196.5" y="29.2636"/><polygon fill="#F1F1F1" points="292.5,34.2636,292.5,48.2636,304.5,48.2636,304.5,40.2636,298.5,34.2636,292.5,34.2636" style="stroke:#181818;stroke-width:0.5;"/><line style="stroke:#181818;stroke-width:0.5;" x1="298.5" x2="298.5" y1="34.2636" y2="40.2636"/><line style="stroke:#181818;stroke-width:0.5;" x1="304.5" x2="298.5" y1="40.2636" y2="40.2636"/><text fill="#000000" font-family="sans-serif" font-size="14" lengthAdjust="spacing" textLength="83" x="206.5" y="56.7968">ShareYASHE</text><text fill="#000000" font-family="sans-serif" font-size="14" lengthAdjust="spacing" textLength="80" x="206.5" y="74.4062">HTTP server</text></g><!--MD5=[742c85e404709308bddaf6142f9e0a26]
entity wsServer--><g id="elem_wsServer"><rect fill="#F1F1F1" height="58.2188" rx="2.5" ry="2.5" style="stroke:#181818;stroke-width:0.5;" width="146" x="180" y="122.2636"/><polygon fill="#F1F1F1" points="309,127.2636,309,141.2636,321,141.2636,321,133.2636,315,127.2636,309,127.2636" style="stroke:#181818;stroke-width:0.5;"/><line style="stroke:#181818;stroke-width:0.5;" x1="315" x2="315" y1="127.2636" y2="133.2636"/><line style="stroke:#181818;stroke-width:0.5;" x1="321" x2="315" y1="133.2636" y2="133.2636"/><text fill="#000000" font-family="sans-serif" font-size="14" lengthAdjust="spacing" textLength="83" x="190" y="149.7968">ShareYASHE</text><text fill="#000000" font-family="sans-serif" font-size="14" lengthAdjust="spacing" textLength="116" x="190" y="167.4062">WebSocket server</text></g><!--MD5=[7468467f3b6b392f1d176d828c753b77]
entity db--><g id="elem_db"><path d="M386,83.2636 C386,73.2636 431.5,73.2636 431.5,73.2636 C431.5,73.2636 477,73.2636 477,83.2636 L477,127.4823 C477,137.4823 431.5,137.4823 431.5,137.4823 C431.5,137.4823 386,137.4823 386,127.4823 L386,83.2636 " fill="#F1F1F1" style="stroke:#181818;stroke-width:0.5;"/><path d="M386,83.2636 C386,93.2636 431.5,93.2636 431.5,93.2636 C431.5,93.2636 477,93.2636 477,83.2636 " fill="none" style="stroke:#181818;stroke-width:0.5;"/><text fill="#000000" font-family="sans-serif" font-size="14" lengthAdjust="spacing" textLength="71" x="396" y="111.7968">Documents</text><text fill="#000000" font-family="sans-serif" font-size="14" lengthAdjust="spacing" textLength="59" x="396" y="129.4062">database</text></g><!--MD5=[4a65e84059005d12693a083370a06717]
entity client--><g id="elem_client"><rect fill="#F1F1F1" height="58.2188" rx="2.5" ry="2.5" style="stroke:#181818;stroke-width:0.5;" width="113" x="7" y="76.2636"/><polygon fill="#F1F1F1" points="103,81.2636,103,95.2636,115,95.2636,115,87.2636,109,81.2636,103,81.2636" style="stroke:#181818;stroke-width:0.5;"/><line style="stroke:#181818;stroke-width:0.5;" x1="109" x2="109" y1="81.2636" y2="87.2636"/><line style="stroke:#181818;stroke-width:0.5;" x1="115" x2="109" y1="87.2636" y2="87.2636"/><text fill="#000000" font-family="sans-serif" font-size="14" lengthAdjust="spacing" textLength="83" x="17" y="103.7968">ShareYASHE</text><text fill="#000000" font-family="sans-serif" font-size="14" lengthAdjust="spacing" textLength="33" x="17" y="121.4062">client</text></g><!--MD5=[8fc3522a43f8c7199df5e09e5bb0188e]
entity user--><g id="elem_user"><ellipse cx="63.5" cy="177.7636" fill="#F1F1F1" rx="8" ry="8" style="stroke:#181818;stroke-width:0.5;"/><path d="M63.5,185.7636 L63.5,212.7636 M50.5,193.7636 L76.5,193.7636 M63.5,212.7636 L50.5,227.7636 M63.5,212.7636 L76.5,227.7636 " fill="none" style="stroke:#181818;stroke-width:0.5;"/><text fill="#000000" font-family="sans-serif" font-size="14" lengthAdjust="spacing" textLength="29" x="49" y="243.7968">User</text></g><!--MD5=[603a4fbf625c569199314a190add0da7]
reverse link client to user--><g id="link_client_user"><path d="M63.5,139.8736 C63.5,149.6636 63.5,159.4436 63.5,169.2336 " fill="none" id="client-backto-user" style="stroke:#181818;stroke-width:1.0;"/><polygon fill="#181818" points="63.5,134.7536,59.5,143.7536,63.5,139.7536,67.5,143.7536,63.5,134.7536" style="stroke:#181818;stroke-width:1.0;"/></g><!--MD5=[959150f2bc6bd003ee4149081560a2fb]
link client to httpServer--><g id="link_client_httpServer"><path d="M120.25,91.2936 C142.63,85.6836 168.49,79.1936 191.34,73.4736 " fill="none" id="client-to-httpServer" style="stroke:#181818;stroke-width:1.0;"/><polygon fill="#181818" points="196.47,72.1836,186.7674,70.4926,191.6201,73.3996,188.7131,78.2524,196.47,72.1836" style="stroke:#181818;stroke-width:1.0;"/></g><!--MD5=[228ad4a183c2c84b1bc542e55765bbff]
link client to wsServer--><g id="link_client_wsServer"><path d="M120.25,118.9436 C137.32,123.1236 156.41,127.8136 174.65,132.2836 " fill="none" id="client-to-wsServer" style="stroke:#181818;stroke-width:1.0;"/><polygon fill="#181818" points="179.77,133.5436,171.9754,127.5233,174.9126,132.3578,170.0781,135.2951,179.77,133.5436" style="stroke:#181818;stroke-width:1.0;"/></g><!--MD5=[f1325fcdaf066c5bd86028c99e22e0c3]
link httpServer to db--><g id="link_httpServer_db"><path d="M309.85,73.1336 C332.66,79.2136 358.83,86.1836 380.96,92.0736 " fill="none" id="httpServer-to-db" style="stroke:#181818;stroke-width:1.0;"/><polygon fill="#181818" points="385.9,93.3836,378.2323,87.2025,381.0684,92.097,376.1738,94.9331,385.9,93.3836" style="stroke:#181818;stroke-width:1.0;"/></g><!--MD5=[f7b5ec11ffca5148e63b93a629ef08b5]
link wsServer to db--><g id="link_wsServer_db"><path d="M326.04,132.4836 C344.36,127.7136 363.64,122.6936 380.57,118.2736 " fill="none" id="wsServer-to-db" style="stroke:#181818;stroke-width:1.0;"/><polygon fill="#181818" points="385.75,116.9236,376.0293,115.3401,380.9139,118.1932,378.0607,123.0779,385.75,116.9236" style="stroke:#181818;stroke-width:1.0;"/></g><!--MD5=[7a764c0824ef41a35b1de478969b04af]
@startuml ShareYASHE - Deployment structure
left to right direction

actor "User" as user

cloud {
    artifact "ShareYASHE\nHTTP server" as httpServer {
    }
    artifact "ShareYASHE\nWebSocket server" as wsServer {
    }
    database "Documents\ndatabase" as db {
    }
}

artifact "ShareYASHE\nclient" as client {
}

user -left-> client

client -down-> httpServer
client -down-> wsServer

httpServer -down-> db
wsServer -down-> db

@enduml

PlantUML version 1.2022.7(Mon Aug 22 19:01:30 CEST 2022)
(GPL source distribution)
Java Runtime: OpenJDK Runtime Environment
JVM: OpenJDK 64-Bit Server VM
Default Encoding: Cp1252
Language: es
Country: ES
--></g></svg>