<?xml version="1.0" encoding="UTF-8" standalone="no"?><svg xmlns="http://www.w3.org/2000/svg" xmlns:xlink="http://www.w3.org/1999/xlink" contentStyleType="text/css" height="672px" preserveAspectRatio="none" style="width:626px;height:672px;background:#FFFFFF;" version="1.1" viewBox="0 0 626 672" width="626px" zoomAndPan="magnify"><defs/><g><!--MD5=[a38529ce30b412e13da5d24c57bb8b4a]
cluster shareYASHE_HTTP--><g id="cluster_shareYASHE_HTTP"><polygon fill="none" points="16,110,26,100,371,100,371,537,361,547,16,547,16,110" style="stroke:#181818;stroke-width:1.0;"/><line style="stroke:#181818;stroke-width:1.0;" x1="361" x2="371" y1="110" y2="100"/><line style="stroke:#181818;stroke-width:1.0;" x1="16" x2="361" y1="110" y2="110"/><line style="stroke:#181818;stroke-width:1.0;" x1="361" x2="361" y1="110" y2="547"/><text fill="#000000" font-family="sans-serif" font-size="14" font-weight="bold" lengthAdjust="spacing" textLength="88" x="145.5" y="127.5332">ShareYASHE</text><text fill="#000000" font-family="sans-serif" font-size="14" font-weight="bold" lengthAdjust="spacing" textLength="86" x="146.5" y="145.1426">HTTP server</text></g><!--MD5=[90a40ef121e2c97d3ffecd7d6cf917e6]
cluster wss--><g id="cluster_wss"><polygon fill="none" points="403,102,413,92,609,92,609,221,599,231,403,231,403,102" style="stroke:#181818;stroke-width:1.0;"/><line style="stroke:#181818;stroke-width:1.0;" x1="599" x2="609" y1="102" y2="92"/><line style="stroke:#181818;stroke-width:1.0;" x1="403" x2="599" y1="102" y2="102"/><line style="stroke:#181818;stroke-width:1.0;" x1="599" x2="599" y1="102" y2="231"/><text fill="#000000" font-family="sans-serif" font-size="14" font-weight="bold" lengthAdjust="spacing" textLength="88" x="458" y="119.5332">ShareYASHE</text><text fill="#000000" font-family="sans-serif" font-size="14" font-weight="bold" lengthAdjust="spacing" textLength="130" x="437" y="137.1426">WebSocket server</text></g><!--MD5=[800abf3622c134f85427057589664eb8]
entity routes--><g id="elem_routes"><rect fill="#F1F1F1" height="47.6094" rx="2.5" ry="2.5" style="stroke:#181818;stroke-width:0.5;" width="85" x="245.5" y="159"/><rect fill="#F1F1F1" height="10" style="stroke:#181818;stroke-width:0.5;" width="15" x="310.5" y="164"/><rect fill="#F1F1F1" height="2" style="stroke:#181818;stroke-width:0.5;" width="4" x="308.5" y="166"/><rect fill="#F1F1F1" height="2" style="stroke:#181818;stroke-width:0.5;" width="4" x="308.5" y="170"/><text fill="#000000" font-family="sans-serif" font-size="14" lengthAdjust="spacing" textLength="45" x="260.5" y="193.5332">Routes</text></g><!--MD5=[afba2db2848077704b6e09cba3a1c7a2]
entity appLayer--><g id="elem_appLayer"><rect fill="#F1F1F1" height="47.6094" rx="2.5" ry="2.5" style="stroke:#181818;stroke-width:0.5;" width="144" x="211" y="267"/><rect fill="#F1F1F1" height="10" style="stroke:#181818;stroke-width:0.5;" width="15" x="335" y="272"/><rect fill="#F1F1F1" height="2" style="stroke:#181818;stroke-width:0.5;" width="4" x="333" y="274"/><rect fill="#F1F1F1" height="2" style="stroke:#181818;stroke-width:0.5;" width="4" x="333" y="278"/><text fill="#000000" font-family="sans-serif" font-size="14" lengthAdjust="spacing" textLength="104" x="226" y="301.5332">Application layer</text></g><!--MD5=[f4175be42e07fd980f9e0df321c67d84]
entity presLayer--><g id="elem_presLayer"><rect fill="#F1F1F1" height="47.6094" rx="2.5" ry="2.5" style="stroke:#181818;stroke-width:0.5;" width="155" x="32.5" y="375"/><rect fill="#F1F1F1" height="10" style="stroke:#181818;stroke-width:0.5;" width="15" x="167.5" y="380"/><rect fill="#F1F1F1" height="2" style="stroke:#181818;stroke-width:0.5;" width="4" x="165.5" y="382"/><rect fill="#F1F1F1" height="2" style="stroke:#181818;stroke-width:0.5;" width="4" x="165.5" y="386"/><text fill="#000000" font-family="sans-serif" font-size="14" lengthAdjust="spacing" textLength="115" x="47.5" y="409.5332">Presentation layer</text></g><!--MD5=[c546df7a38d95317cb3c462a20d0a04d]
entity busLayer--><g id="elem_busLayer"><rect fill="#F1F1F1" height="47.6094" rx="2.5" ry="2.5" style="stroke:#181818;stroke-width:0.5;" width="132" x="223" y="375"/><rect fill="#F1F1F1" height="10" style="stroke:#181818;stroke-width:0.5;" width="15" x="335" y="380"/><rect fill="#F1F1F1" height="2" style="stroke:#181818;stroke-width:0.5;" width="4" x="333" y="382"/><rect fill="#F1F1F1" height="2" style="stroke:#181818;stroke-width:0.5;" width="4" x="333" y="386"/><text fill="#000000" font-family="sans-serif" font-size="14" lengthAdjust="spacing" textLength="92" x="238" y="409.5332">Business layer</text></g><!--MD5=[f6276f694b9e2e8a8530272c3f7f7033]
entity persLayer--><g id="elem_persLayer"><rect fill="#F1F1F1" height="47.6094" rx="2.5" ry="2.5" style="stroke:#181818;stroke-width:0.5;" width="149" x="205.5" y="483"/><rect fill="#F1F1F1" height="10" style="stroke:#181818;stroke-width:0.5;" width="15" x="334.5" y="488"/><rect fill="#F1F1F1" height="2" style="stroke:#181818;stroke-width:0.5;" width="4" x="332.5" y="490"/><rect fill="#F1F1F1" height="2" style="stroke:#181818;stroke-width:0.5;" width="4" x="332.5" y="494"/><text fill="#000000" font-family="sans-serif" font-size="14" lengthAdjust="spacing" textLength="109" x="220.5" y="517.5332">Persistence layer</text></g><!--MD5=[742c85e404709308bddaf6142f9e0a26]
entity wsServer--><g id="elem_wsServer"><rect fill="#F1F1F1" height="47.6094" rx="2.5" ry="2.5" style="stroke:#181818;stroke-width:0.5;" width="108" x="461" y="159"/><rect fill="#F1F1F1" height="10" style="stroke:#181818;stroke-width:0.5;" width="15" x="549" y="164"/><rect fill="#F1F1F1" height="2" style="stroke:#181818;stroke-width:0.5;" width="4" x="547" y="166"/><rect fill="#F1F1F1" height="2" style="stroke:#181818;stroke-width:0.5;" width="4" x="547" y="170"/><text fill="#000000" font-family="sans-serif" font-size="14" lengthAdjust="spacing" textLength="68" x="476" y="193.5332">WS Server</text></g><!--MD5=[7468467f3b6b392f1d176d828c753b77]
entity db--><g id="elem_db"><path d="M298.5,601 C298.5,591 344,591 344,591 C344,591 389.5,591 389.5,601 L389.5,645.2188 C389.5,655.2188 344,655.2188 344,655.2188 C344,655.2188 298.5,655.2188 298.5,645.2188 L298.5,601 " fill="#F1F1F1" style="stroke:#181818;stroke-width:0.5;"/><path d="M298.5,601 C298.5,611 344,611 344,611 C344,611 389.5,611 389.5,601 " fill="none" style="stroke:#181818;stroke-width:0.5;"/><text fill="#000000" font-family="sans-serif" font-size="14" lengthAdjust="spacing" textLength="71" x="308.5" y="629.5332">Documents</text><text fill="#000000" font-family="sans-serif" font-size="14" lengthAdjust="spacing" textLength="59" x="308.5" y="647.1426">database</text></g><!--MD5=[7ee7540ff8af09f61502bafc53318fd1]
entity WebSocket--><g id="elem_WebSocket"><ellipse cx="405" cy="14" fill="#F1F1F1" rx="8" ry="8" style="stroke:#181818;stroke-width:0.5;"/><text fill="#000000" font-family="sans-serif" font-size="14" lengthAdjust="spacing" textLength="72" x="369" y="45.5332">WebSocket</text></g><!--MD5=[96f7e1299d4a43069e6ed32352fcac20]
entity HTTP--><g id="elem_HTTP"><ellipse cx="299" cy="14" fill="#F1F1F1" rx="8" ry="8" style="stroke:#181818;stroke-width:0.5;"/><text fill="#000000" font-family="sans-serif" font-size="14" lengthAdjust="spacing" textLength="36" x="281" y="45.5332">HTTP</text></g><!--MD5=[aff4fc9f78f9220fd38eba8ec648ad76]
link WebSocket to wss--><g id="link_WebSocket_wss"><path d="M405.29,23.05 C405.585,31.26 406.0806,45.0556 406.6603,61.1905 C406.9502,69.2579 407.261,77.9101 407.5783,86.7413 C407.618,87.8453 407.6577,88.952 407.6976,90.0607 C407.7175,90.615 407.7374,91.1699 407.7574,91.7251 " fill="none" id="WebSocket-to-wss" style="stroke:#181818;stroke-width:1.0;"/><polygon fill="#181818" points="407.7574,91.7251,411.4316,82.5873,407.5779,86.7283,403.4368,82.8746,407.7574,91.7251" style="stroke:#181818;stroke-width:1.0;"/></g><!--MD5=[e58c460d4bf53117dff73e3d54c50832]
link HTTP to routes--><g id="link_HTTP_routes"><path d="M298.47,23.05 C296.93,46.38 292.43,114.77 289.86,153.82 " fill="none" id="HTTP-to-routes" style="stroke:#181818;stroke-width:1.0;"/><polygon fill="#181818" points="289.52,158.89,294.1015,150.1717,289.8479,153.9008,286.1188,149.6471,289.52,158.89" style="stroke:#181818;stroke-width:1.0;"/></g><!--MD5=[258128b0b66ddcf0a34c72fedbccf0d5]
link routes to appLayer--><g id="link_routes_appLayer"><path d="M286.92,207 C286.16,223 285.15,244.45 284.34,261.53 " fill="none" id="routes-to-appLayer" style="stroke:#181818;stroke-width:1.0;"/><polygon fill="#181818" points="284.1,266.68,288.5331,257.8853,284.3433,261.6859,280.5426,257.496,284.1,266.68" style="stroke:#181818;stroke-width:1.0;"/></g><!--MD5=[430cf0ac7f70dc2fd33a2eb629ebde90]
link appLayer to busLayer--><g id="link_appLayer_busLayer"><path d="M284.3,315 C285.21,331 286.42,352.45 287.39,369.53 " fill="none" id="appLayer-to-busLayer" style="stroke:#181818;stroke-width:1.0;"/><polygon fill="#181818" points="287.68,374.68,291.1585,365.4659,287.3939,369.6882,283.1716,365.9236,287.68,374.68" style="stroke:#181818;stroke-width:1.0;"/></g><!--MD5=[21a39b68b92b2a266f478110aeb813c4]
link appLayer to presLayer--><g id="link_appLayer_presLayer"><path d="M245.46,315 C218.01,331.82 180.75,354.65 152.26,372.11 " fill="none" id="appLayer-to-presLayer" style="stroke:#181818;stroke-width:1.0;"/><polygon fill="#181818" points="147.76,374.86,157.5225,373.5589,152.0207,372.2435,153.3361,366.7417,147.76,374.86" style="stroke:#181818;stroke-width:1.0;"/></g><!--MD5=[30d38a58584550c69e14a097078d0759]
link busLayer to persLayer--><g id="link_busLayer_persLayer"><path d="M287.05,423 C285.69,439 283.87,460.45 282.42,477.53 " fill="none" id="busLayer-to-persLayer" style="stroke:#181818;stroke-width:1.0;"/><polygon fill="#181818" points="281.98,482.68,286.7115,474.0421,282.394,477.6972,278.739,473.3797,281.98,482.68" style="stroke:#181818;stroke-width:1.0;"/></g><!--MD5=[513ff0e901b5636ec215df27459cba2c]
link persLayer to db--><g id="link_persLayer_db"><path d="M292.95,531.07 C301.84,546.9 313.81,568.23 323.93,586.25 " fill="none" id="persLayer-to-db" style="stroke:#181818;stroke-width:1.0;"/><polygon fill="#181818" points="326.46,590.75,325.5477,580.9435,324.0148,586.3887,318.5696,584.8558,326.46,590.75" style="stroke:#181818;stroke-width:1.0;"/></g><!--MD5=[d26d6a8945154c3192c7b4740777da0a]
link wss to db--><g id="link_wss_db"><path d="M410.0487,231.4312 C409.9462,234.5297 409.8326,237.7552 409.7068,241.1003 C409.4552,247.7903 409.1546,254.9584 408.7957,262.544 C408.0778,277.7154 407.1263,294.5572 405.865,312.5863 C400.82,384.7025 390.82,475.815 371,555 C368.41,565.35 364.56,576.22 360.57,586.12 " fill="none" id="wss-to-db" style="stroke:#181818;stroke-width:1.0;"/><polygon fill="#181818" points="358.61,590.9,365.7281,584.0932,360.5087,586.2745,358.3273,581.0552,358.61,590.9" style="stroke:#181818;stroke-width:1.0;"/></g><!--MD5=[2034534d7351bafb1e6ad5b93c3f7eee]
@startuml ShareYASHE - Components structure

node "ShareYASHE\nHTTP server" as shareYASHE_HTTP {
   [Routes] as routes
   [Application layer] as appLayer
   [Presentation layer] as presLayer
   [Business layer] as busLayer
   [Persistence layer] as persLayer
}

node "ShareYASHE\nWebSocket server" as wss {
   [WS Server] as wsServer
}

database "Documents\ndatabase" as db {
}

together {
   WebSocket -down-> wss
   HTTP -down-> routes
}

routes -down-> appLayer
appLayer -down-> busLayer
appLayer -down-> presLayer
busLayer -down-> persLayer

persLayer -down-> db
wss -down-> db

@enduml

PlantUML version 1.2022.7(Mon Aug 22 19:01:30 CEST 2022)
(GPL source distribution)
Java Runtime: OpenJDK Runtime Environment
JVM: OpenJDK 64-Bit Server VM
Default Encoding: Cp1252
Language: es
Country: ES
--></g></svg>